<?xml version="1.0" encoding="UTF-8"?>
<svg id="Camada_1" data-name="Camada 1" xmlns="http://www.w3.org/2000/svg" viewBox="0 0 1920 596">
  <defs>
    <style>
      .cls-1 {
        fill-rule: evenodd;
      }

      .cls-1, .cls-2 {
        fill: #004c97;
      }
    </style>
  </defs>
  <g>
    <g>
      <rect class="cls-2" x="1500.29" y="295.01" width="56.82" height="26.15"/>
      <path class="cls-2" d="M1636.05,316.45c0,8.51-1.09,16.25-3.26,23.22-2.11,6.97-5.33,12.97-9.68,17.99-4.28,4.95-9.68,8.82-16.2,11.61-6.52,2.72-14.2,4.08-23.04,4.08-4,0-7.96-.21-11.89-.63-3.86-.42-7.89-1.12-12.1-2.09l1.89-20.61c.21-1.81.94-3.28,2.21-4.39,1.26-1.12,3.05-1.67,5.37-1.67,1.19,0,2.66.21,4.42.63,1.75.35,3.86.52,6.31.52,3.44,0,6.42-.45,8.94-1.36,2.6-.98,4.74-2.55,6.42-4.71,1.68-2.23,2.95-5.13,3.79-8.68.84-3.56,1.26-7.95,1.26-13.18v-97.9h35.56v97.17Z"/>
      <path class="cls-2" d="M1718.34,219.28c10.8,0,20.06,1.29,27.78,3.87,7.79,2.51,14.17,6,19.15,10.46,5.05,4.46,8.77,9.73,11.15,15.79,2.39,6.07,3.58,12.62,3.58,19.66,0,7.6-1.23,14.58-3.68,20.92-2.45,6.35-6.21,11.78-11.26,16.32-5.05,4.53-11.47,8.09-19.25,10.67-7.72,2.51-16.87,3.77-27.46,3.77h-18.52v50.94h-35.56v-152.4h54.08ZM1718.34,294.07c9.26,0,15.92-2.2,19.99-6.59,4.07-4.39,6.1-10.53,6.1-18.41,0-3.49-.53-6.66-1.58-9.52-1.05-2.86-2.67-5.3-4.84-7.32-2.1-2.09-4.81-3.7-8.1-4.81-3.23-1.12-7.09-1.67-11.57-1.67h-18.52v48.32h18.52Z"/>
      <path class="cls-2" d="M491.67,155.55c0,13.48-10.99,24.41-24.55,24.41s-24.55-10.93-24.55-24.41,10.99-24.41,24.55-24.41,24.55,10.93,24.55,24.41Z"/>
      <path class="cls-2" d="M445.85,199.56v172.16h41.74v-171.79c-6.23,2.84-13.16,4.43-20.47,4.43s-14.83-1.73-21.27-4.81Z"/>
      <path class="cls-2" d="M653.46,371.72v-152.4h-31.36v80.64c0,2.44.07,5.06.21,7.84.14,2.72.39,5.54.73,8.47l-72.91-91.52c-.98-1.19-1.86-2.13-2.63-2.82-.77-.7-1.58-1.22-2.42-1.57-.84-.42-1.79-.7-2.84-.84-1.05-.14-2.35-.21-3.89-.21h-18.73v152.4h31.36v-81.69c0-2.23-.07-4.6-.21-7.11-.07-2.58-.25-5.23-.53-7.95l72.29,90.9c1.82,2.16,3.65,3.7,5.47,4.6,1.89.84,4.21,1.26,6.94,1.26h18.52Z"/>
      <path class="cls-1" d="M797.25,295.47c0-7.53-.98-14.3-2.95-20.29-1.96-6.07-4.81-11.19-8.52-15.38-3.65-4.18-8.14-7.39-13.47-9.62-5.33-2.23-11.4-3.35-18.2-3.35s-13.01,1.12-18.41,3.35c-5.33,2.23-9.86,5.44-13.57,9.62-3.65,4.18-6.45,9.31-8.42,15.38-1.96,6-2.95,12.76-2.95,20.29s.98,14.43,2.95,20.5c1.96,6,4.77,11.09,8.42,15.27,3.72,4.18,8.24,7.39,13.57,9.62,5.4,2.16,11.54,3.24,18.41,3.24s12.87-1.08,18.2-3.24c5.33-2.23,9.82-5.44,13.47-9.62,3.72-4.18,6.56-9.27,8.52-15.27,1.96-6.07,2.95-12.9,2.95-20.5ZM833.66,295.47c0,11.02-1.93,21.27-5.79,30.75-3.79,9.48-9.16,17.75-16.1,24.79-6.94,6.97-15.33,12.45-25.15,16.42-9.75,3.97-20.59,5.96-32.51,5.96s-22.8-1.99-32.62-5.96c-9.82-3.98-18.24-9.45-25.25-16.42-6.95-7.04-12.35-15.31-16.2-24.79-3.79-9.48-5.68-19.73-5.68-30.75s1.89-21.27,5.68-30.75c3.86-9.48,9.26-17.71,16.2-24.69,7.02-6.97,15.43-12.45,25.25-16.42,9.82-3.98,20.69-5.96,32.62-5.96s22.76,2.02,32.51,6.07c9.82,3.98,18.2,9.45,25.15,16.42,6.94,6.97,12.31,15.2,16.1,24.68,3.86,9.48,5.79,19.7,5.79,30.65Z"/>
      <path class="cls-2" d="M925.11,371.72l61.45-152.4h-28.83c-2.95,0-5.44.8-7.47,2.41-1.96,1.53-3.33,3.28-4.1,5.23l-29.46,81.59c-1.4,3.56-2.73,7.46-4,11.72-1.19,4.18-2.28,8.58-3.26,13.18-1.19-4.6-2.45-9-3.79-13.18-1.33-4.25-2.7-8.16-4.1-11.72l-29.67-81.59c-.98-2.23-2.42-4.04-4.31-5.44-1.89-1.46-4.38-2.2-7.47-2.2h-28.62l61.45,152.4h32.2Z"/>
      <path class="cls-1" d="M1066.92,313.46l-14.21-41.73c-1.05-2.65-2.17-5.75-3.37-9.31-1.19-3.63-2.38-7.53-3.58-11.71-1.05,4.25-2.17,8.19-3.37,11.82-1.19,3.62-2.31,6.76-3.37,9.41l-14.1,41.53h41.98ZM1123.42,371.72h-27.57c-3.09,0-5.58-.7-7.47-2.09-1.89-1.46-3.33-3.31-4.31-5.54l-9.05-26.57h-58.29l-9.05,26.57c-.77,1.95-2.18,3.73-4.21,5.33-1.96,1.53-4.42,2.3-7.36,2.3h-27.78l59.34-152.4h36.4l59.34,152.4Z"/>
      <polygon class="cls-2" points="1187.53 247.35 1230.67 247.35 1230.67 219.32 1108.83 219.32 1108.83 247.35 1151.97 247.35 1151.97 371.72 1187.53 371.72 1187.53 247.35"/>
      <polygon class="cls-2" points="1284.51 246.52 1284.51 282.08 1332.7 282.08 1332.7 308.23 1284.51 308.23 1284.51 344.52 1347.43 344.52 1347.43 371.72 1248.74 371.72 1248.74 219.32 1347.43 219.32 1347.43 246.52 1284.51 246.52"/>
      <path class="cls-2" d="M1472.14,332.81c-.84-.35-1.69-.52-2.53-.52-1.05,0-2.07.24-3.05.73-.98.42-1.89.98-2.73,1.67-2.11,1.88-4.17,3.45-6.21,4.71-2.03,1.19-4.21,2.16-6.52,2.93-2.32.7-4.81,1.22-7.47,1.57-2.67.28-5.61.42-8.84.42-5.61,0-10.87-1.08-15.78-3.24-4.91-2.16-9.22-5.3-12.94-9.41-3.65-4.18-6.56-9.31-8.73-15.38-2.1-6.07-3.16-13.01-3.16-20.81s.95-14.61,2.84-20.61c1.97-6.07,4.7-11.16,8.21-15.27,3.58-4.18,7.79-7.36,12.63-9.52,4.91-2.16,10.31-3.24,16.2-3.24,3.72,0,6.95.28,9.68.84,2.81.56,5.23,1.25,7.26,2.09,2.1.77,3.89,1.64,5.36,2.61,1.54.91,2.95,1.78,4.21,2.61,1.26.77,2.45,1.43,3.58,1.99,1.12.56,2.31.84,3.58.84,1.89,0,3.37-.38,4.42-1.15,1.05-.84,1.96-1.74,2.73-2.72l12-16c-2.87-2.93-6.17-5.65-9.89-8.16-3.72-2.51-7.79-4.64-12.21-6.38-4.42-1.81-9.19-3.21-14.31-4.18-5.05-1.05-10.45-1.57-16.2-1.57-11.29,0-21.64,1.92-31.04,5.75-9.4,3.84-17.47,9.2-24.2,16.11-6.73,6.9-11.96,15.13-15.68,24.69-3.72,9.48-5.58,19.91-5.58,31.27s1.72,21.51,5.16,31.06c3.44,9.48,8.35,17.71,14.73,24.69,6.45,6.9,14.27,12.34,23.46,16.32,9.26,3.91,19.71,5.86,31.35,5.86,12.69,0,23.67-2.02,32.93-6.07,9.33-4.11,17.08-10.18,23.25-18.2l-14.1-14.75c-.77-.77-1.58-1.29-2.42-1.57Z"/>
    </g>
    <g>
      <path class="cls-2" d="M1677.16,427.56c3.41-3.15,7.47-4.73,12.19-4.73,1.74,0,3.27.28,4.62.85,1.36.55,2.5,1.33,3.4,2.35.93,1.02,1.63,2.23,2.1,3.64.49,1.39.74,2.94.74,4.64v19.04h-2.84c-.61,0-1.07-.09-1.39-.26-.32-.2-.58-.58-.8-1.15l-.62-2.44c-.77.69-1.53,1.3-2.28,1.85-.75.53-1.53.98-2.34,1.35-.79.37-1.65.64-2.57.82-.91.2-1.91.29-3.02.29-1.22,0-2.37-.17-3.43-.5-1.04-.33-1.95-.83-2.72-1.5-.77-.69-1.38-1.53-1.84-2.53-.43-1-.65-2.17-.65-3.53,0-1.16.31-2.28.92-3.38.63-1.1,1.66-2.08,3.08-2.94,1.44-.88,3.32-1.61,5.65-2.17,2.35-.57,5.24-.89,8.67-.97v-2c0-2.15-.46-3.76-1.39-4.82-.93-1.06-2.29-1.59-4.08-1.59-1.22,0-2.25.16-3.08.47-.83.29-1.55.62-2.16.97-.61.35-1.15.69-1.63,1-.47.29-.97.44-1.51.44-.43,0-.81-.11-1.12-.32-.3-.24-.54-.52-.74-.85l-1.15-2.06ZM1694.02,440.25c-2.27.08-4.18.26-5.74.56-1.56.27-2.82.63-3.79,1.09-.97.43-1.67.95-2.1,1.56-.41.61-.62,1.28-.62,2s.11,1.31.33,1.82c.24.49.55.9.95,1.23.41.31.89.55,1.42.71.55.14,1.15.2,1.8.2,1.66,0,3.08-.3,4.26-.91,1.2-.63,2.37-1.53,3.49-2.7v-5.55ZM1657.14,448.86c2.72,0,4.74-.9,6.07-2.7,1.34-1.82,2.01-4.42,2.01-7.79s-.67-5.97-2.01-7.79c-1.32-1.84-3.34-2.76-6.07-2.76s-4.81.92-6.15,2.76c-1.34,1.82-2.01,4.42-2.01,7.79s.67,5.96,2.01,7.79c1.34,1.8,3.39,2.7,6.15,2.7ZM1657.14,422.92c2.23,0,4.24.36,6.04,1.09,1.81.73,3.35,1.75,4.62,3.09,1.28,1.33,2.27,2.95,2.96,4.85.69,1.9,1.04,4.03,1.04,6.41s-.34,4.5-1.04,6.4c-.69,1.9-1.68,3.53-2.96,4.88-1.26,1.33-2.8,2.36-4.62,3.09-1.8.72-3.81,1.09-6.04,1.09s-4.28-.36-6.1-1.09c-1.8-.73-3.33-1.75-4.62-3.09-1.28-1.35-2.27-2.98-2.96-4.88-.69-1.9-1.04-4.03-1.04-6.4s.35-4.51,1.04-6.41c.69-1.9,1.68-3.52,2.96-4.85,1.28-1.33,2.82-2.36,4.62-3.09,1.81-.72,3.85-1.09,6.1-1.09ZM1636.29,428.82c-.16.27-.34.47-.53.59-.2.12-.44.18-.74.18-.33,0-.7-.1-1.09-.29-.39-.22-.86-.45-1.39-.71-.53-.26-1.16-.48-1.89-.67-.71-.21-1.55-.32-2.51-.32-.79,0-1.51.1-2.16.29-.63.18-1.17.44-1.63.79-.43.33-.77.74-1.01,1.21-.24.45-.35.94-.35,1.47,0,.71.22,1.29.65,1.76.44.47,1.01.88,1.72,1.24.71.33,1.52.64,2.43.91.91.27,1.83.57,2.78.88.95.31,1.87.68,2.78,1.09.91.41,1.71.92,2.43,1.53.71.59,1.28,1.31,1.72,2.17.43.84.65,1.87.65,3.09,0,1.41-.26,2.71-.77,3.91-.51,1.19-1.26,2.23-2.25,3.12-.99.88-2.22,1.57-3.7,2.06-1.46.49-3.14.74-5.03.74-1.05,0-2.06-.1-3.05-.29-.97-.18-1.89-.42-2.78-.74-.87-.33-1.69-.72-2.46-1.17-.75-.45-1.42-.94-2.01-1.47l1.48-2.41c.18-.3.4-.52.65-.68.27-.18.61-.26,1-.26.42,0,.82.14,1.21.41.41.25.89.54,1.42.85.55.31,1.21.61,1.98.88.77.26,1.73.38,2.87.38.95,0,1.77-.11,2.46-.32.69-.23,1.26-.55,1.71-.94.45-.39.79-.83,1.01-1.32.22-.51.32-1.05.32-1.62,0-.77-.22-1.39-.65-1.88-.44-.49-1.02-.91-1.75-1.26-.71-.35-1.53-.67-2.46-.94-.91-.27-1.83-.57-2.78-.88-.95-.31-1.88-.68-2.81-1.09-.91-.41-1.73-.93-2.46-1.56-.71-.65-1.28-1.42-1.72-2.32-.43-.92-.65-2.04-.65-3.35,0-1.2.24-2.33.71-3.41.49-1.08,1.2-2.03,2.13-2.85.95-.82,2.1-1.47,3.46-1.94,1.38-.49,2.97-.73,4.76-.73,2.03,0,3.88.32,5.53.97,1.66.65,3.05,1.53,4.17,2.64l-1.42,2.29ZM1610.46,428.82c-.16.27-.34.47-.53.59-.2.12-.44.18-.74.18-.34,0-.7-.1-1.1-.29-.39-.22-.86-.45-1.39-.71-.53-.26-1.17-.48-1.9-.67-.71-.21-1.55-.32-2.51-.32-.79,0-1.51.1-2.16.29-.63.18-1.17.44-1.63.79-.43.33-.77.74-1.01,1.21-.24.45-.35.94-.35,1.47,0,.71.22,1.29.65,1.76.43.47,1,.88,1.71,1.24.71.33,1.52.64,2.43.91.91.27,1.83.57,2.78.88.95.31,1.87.68,2.78,1.09.91.41,1.72.92,2.43,1.53.71.59,1.28,1.31,1.72,2.17.44.84.65,1.87.65,3.09,0,1.41-.25,2.71-.77,3.91-.51,1.19-1.26,2.23-2.25,3.12-.99.88-2.22,1.57-3.7,2.06-1.46.49-3.14.74-5.03.74-1.04,0-2.06-.1-3.05-.29-.97-.18-1.89-.42-2.78-.74-.87-.33-1.69-.72-2.46-1.17-.75-.45-1.42-.94-2.01-1.47l1.48-2.41c.18-.3.39-.52.65-.68.28-.18.61-.26,1.01-.26s.82.14,1.21.41c.41.25.89.54,1.42.85.55.31,1.21.61,1.98.88.77.26,1.72.38,2.87.38.95,0,1.76-.11,2.46-.32.69-.23,1.26-.55,1.71-.94.45-.39.79-.83,1.01-1.32.22-.51.32-1.05.32-1.62,0-.77-.22-1.39-.65-1.88-.43-.49-1.02-.91-1.75-1.26-.71-.35-1.53-.67-2.46-.94-.91-.27-1.83-.57-2.78-.88-.95-.31-1.88-.68-2.81-1.09-.91-.41-1.73-.93-2.46-1.56-.71-.65-1.28-1.42-1.71-2.32-.43-.92-.65-2.04-.65-3.35,0-1.2.24-2.33.71-3.41.49-1.08,1.2-2.03,2.13-2.85.95-.82,2.1-1.47,3.46-1.94,1.38-.49,2.97-.73,4.76-.73,2.03,0,3.88.32,5.53.97,1.66.65,3.05,1.53,4.17,2.64l-1.42,2.29ZM1565.62,438.87c.08,1.7.35,3.18.8,4.43.45,1.23,1.05,2.26,1.8,3.09.77.82,1.68,1.44,2.72,1.85,1.07.39,2.25.59,3.55.59s2.32-.14,3.22-.41c.91-.29,1.7-.61,2.37-.94.67-.35,1.24-.67,1.72-.94.47-.29.91-.44,1.3-.44.51,0,.91.2,1.18.59l1.8,2.32c-.75.88-1.6,1.62-2.54,2.23-.95.61-1.95,1.1-3.02,1.5-1.06.37-2.16.64-3.28.79-1.12.18-2.22.27-3.28.27-2.09,0-4.03-.34-5.83-1.03-1.77-.71-3.32-1.73-4.64-3.09-1.3-1.35-2.33-3.02-3.08-5.02-.73-2-1.1-4.3-1.1-6.91,0-2.08.32-4.02.98-5.82.67-1.8,1.62-3.37,2.84-4.7,1.24-1.33,2.74-2.38,4.5-3.14,1.78-.78,3.78-1.17,6.01-1.17,1.85,0,3.57.3,5.15.91,1.58.59,2.94,1.46,4.08,2.61,1.15,1.16,2.03,2.58,2.66,4.26.65,1.67.98,3.57.98,5.7,0,.98-.11,1.64-.32,1.97-.22.33-.61.5-1.18.5h-19.38ZM1580.8,434.99c0-1.06-.16-2.04-.47-2.94-.3-.92-.74-1.71-1.33-2.38-.59-.69-1.33-1.21-2.22-1.58-.87-.39-1.87-.59-3.02-.59-2.31,0-4.12.66-5.44,1.97-1.32,1.31-2.16,3.15-2.51,5.52h15ZM1540.83,411.04c2.78,0,5.19.32,7.22.97,2.05.65,3.74,1.56,5.06,2.73,1.34,1.16,2.34,2.55,2.99,4.2.65,1.62.98,3.43.98,5.41s-.35,3.87-1.04,5.55c-.69,1.66-1.72,3.1-3.08,4.32-1.36,1.2-3.06,2.14-5.09,2.82-2.01.67-4.36,1-7.04,1h-6.33v15.31h-6.92v-42.31h13.25ZM1540.83,432.61c1.54,0,2.89-.2,4.05-.59,1.18-.39,2.16-.94,2.93-1.65.79-.73,1.38-1.6,1.78-2.62.39-1.02.59-2.16.59-3.41s-.2-2.34-.59-3.32c-.38-.98-.95-1.81-1.72-2.5-.77-.69-1.74-1.21-2.93-1.56-1.16-.37-2.53-.56-4.11-.56h-6.33v16.19h6.33ZM1490.9,448.86c2.72,0,4.74-.9,6.07-2.7,1.34-1.82,2.01-4.42,2.01-7.79s-.67-5.97-2.01-7.79c-1.32-1.84-3.34-2.76-6.07-2.76s-4.81.92-6.15,2.76c-1.34,1.82-2.01,4.42-2.01,7.79s.67,5.96,2.01,7.79c1.34,1.8,3.39,2.7,6.15,2.7ZM1490.9,422.92c2.23,0,4.24.36,6.04,1.09,1.81.73,3.35,1.75,4.62,3.09,1.28,1.33,2.27,2.95,2.96,4.85.69,1.9,1.04,4.03,1.04,6.41s-.35,4.5-1.04,6.4c-.69,1.9-1.68,3.53-2.96,4.88-1.26,1.33-2.8,2.36-4.62,3.09-1.8.72-3.81,1.09-6.04,1.09s-4.28-.36-6.09-1.09c-1.79-.73-3.33-1.75-4.62-3.09-1.28-1.35-2.27-2.98-2.96-4.88-.69-1.9-1.04-4.03-1.04-6.4s.34-4.51,1.04-6.41c.69-1.9,1.68-3.52,2.96-4.85,1.28-1.33,2.82-2.36,4.62-3.09,1.81-.72,3.85-1.09,6.09-1.09ZM1462.09,413.86c.63,0,1.12-.17,1.48-.53.35-.37.54-.98.56-1.82h3.88c0,1.02-.14,1.95-.41,2.79-.28.82-.67,1.54-1.18,2.15-.49.59-1.1,1.05-1.8,1.38-.69.31-1.45.47-2.28.47-.69,0-1.34-.13-1.95-.38-.61-.27-1.18-.57-1.71-.88-.53-.31-1.04-.6-1.51-.85-.47-.28-.92-.41-1.33-.41-.63,0-1.12.2-1.48.59-.35.37-.53.98-.53,1.82h-3.94c0-1.02.14-1.95.42-2.79.3-.84.69-1.56,1.18-2.15.51-.61,1.11-1.08,1.8-1.41.71-.33,1.48-.5,2.31-.5.71,0,1.37.14,1.98.41.61.25,1.18.54,1.71.85.53.31,1.03.61,1.48.88.48.25.92.38,1.33.38ZM1447.36,427.56c3.41-3.15,7.48-4.73,12.19-4.73,1.74,0,3.27.28,4.62.85,1.36.55,2.49,1.33,3.4,2.35.93,1.02,1.63,2.23,2.1,3.64.49,1.39.74,2.94.74,4.64v19.04h-2.84c-.61,0-1.07-.09-1.39-.26-.32-.2-.58-.58-.8-1.15l-.62-2.44c-.77.69-1.53,1.3-2.28,1.85-.75.53-1.53.98-2.34,1.35-.79.37-1.65.64-2.57.82-.91.2-1.91.29-3.02.29-1.22,0-2.37-.17-3.43-.5-1.05-.33-1.95-.83-2.72-1.5-.77-.69-1.38-1.53-1.83-2.53-.43-1-.65-2.17-.65-3.53,0-1.16.31-2.28.92-3.38.63-1.1,1.66-2.08,3.08-2.94,1.44-.88,3.32-1.61,5.65-2.17,2.35-.57,5.24-.89,8.67-.97v-2c0-2.15-.46-3.76-1.39-4.82-.93-1.06-2.29-1.59-4.08-1.59-1.22,0-2.25.16-3.08.47-.83.29-1.55.62-2.16.97-.61.35-1.15.69-1.63,1-.47.29-.98.44-1.51.44-.44,0-.81-.11-1.12-.32-.29-.24-.54-.52-.74-.85l-1.15-2.06ZM1464.22,440.25c-2.27.08-4.18.26-5.74.56-1.56.27-2.82.63-3.79,1.09-.97.43-1.66.95-2.1,1.56-.42.61-.62,1.28-.62,2s.11,1.31.32,1.82c.24.49.55.9.95,1.23.42.31.89.55,1.42.71.55.14,1.15.2,1.8.2,1.66,0,3.08-.3,4.26-.91,1.21-.63,2.37-1.53,3.49-2.7v-5.55ZM1427.34,448.86c2.72,0,4.74-.9,6.07-2.7,1.34-1.82,2.01-4.42,2.01-7.79s-.67-5.97-2.01-7.79c-1.32-1.84-3.34-2.76-6.07-2.76s-4.81.92-6.15,2.76c-1.34,1.82-2.01,4.42-2.01,7.79s.67,5.96,2.01,7.79c1.34,1.8,3.39,2.7,6.15,2.7ZM1427.34,422.92c2.23,0,4.24.36,6.04,1.09,1.81.73,3.35,1.75,4.61,3.09,1.28,1.33,2.27,2.95,2.96,4.85.69,1.9,1.04,4.03,1.04,6.41s-.34,4.5-1.04,6.4c-.69,1.9-1.67,3.53-2.96,4.88-1.26,1.33-2.8,2.36-4.61,3.09-1.8.72-3.81,1.09-6.04,1.09s-4.28-.36-6.1-1.09c-1.8-.73-3.33-1.75-4.62-3.09-1.28-1.35-2.27-2.98-2.96-4.88-.69-1.9-1.04-4.03-1.04-6.4s.35-4.51,1.04-6.41c.69-1.9,1.68-3.52,2.96-4.85,1.28-1.33,2.82-2.36,4.62-3.09,1.81-.72,3.85-1.09,6.1-1.09ZM1406.77,438.49c0,2.37-.29,4.51-.89,6.41-.57,1.88-1.44,3.49-2.6,4.82-1.14,1.31-2.57,2.33-4.29,3.06-1.7.7-3.67,1.06-5.92,1.06-1.03,0-2.04-.07-3.05-.21-1-.12-2.05-.31-3.13-.59l.35-4.11c.06-.39.21-.71.44-.94.26-.23.62-.35,1.09-.35.35,0,.81.08,1.36.24.57.14,1.31.2,2.22.2,1.2,0,2.27-.18,3.2-.53.95-.35,1.73-.9,2.37-1.65.65-.76,1.13-1.73,1.45-2.91.34-1.2.5-2.63.5-4.32v-27.62h6.89v27.44ZM1350.26,438.87c.08,1.7.35,3.18.8,4.43.45,1.23,1.06,2.26,1.81,3.09.77.82,1.68,1.44,2.72,1.85,1.07.39,2.25.59,3.55.59s2.32-.14,3.22-.41c.91-.29,1.7-.61,2.37-.94.67-.35,1.24-.67,1.72-.94.47-.29.91-.44,1.3-.44.51,0,.91.2,1.18.59l1.8,2.32c-.75.88-1.6,1.62-2.54,2.23-.95.61-1.95,1.1-3.02,1.5-1.07.37-2.16.64-3.29.79-1.12.18-2.22.27-3.29.27-2.09,0-4.03-.34-5.83-1.03-1.77-.71-3.32-1.73-4.64-3.09-1.3-1.35-2.33-3.02-3.08-5.02-.73-2-1.09-4.3-1.09-6.91,0-2.08.33-4.02.98-5.82.67-1.8,1.62-3.37,2.84-4.7,1.24-1.33,2.74-2.38,4.5-3.14,1.78-.78,3.78-1.17,6.01-1.17,1.85,0,3.57.3,5.15.91,1.58.59,2.94,1.46,4.09,2.61,1.14,1.16,2.03,2.58,2.66,4.26.65,1.67.98,3.57.98,5.7,0,.98-.11,1.64-.32,1.97-.22.33-.61.5-1.18.5h-19.38ZM1365.44,434.99c0-1.06-.16-2.04-.47-2.94-.3-.92-.74-1.71-1.33-2.38-.59-.69-1.33-1.21-2.22-1.58-.87-.39-1.87-.59-3.02-.59-2.31,0-4.12.66-5.44,1.97-1.32,1.31-2.16,3.15-2.51,5.52h15ZM1337.87,409.87v43.49h-3.85c-.85,0-1.39-.4-1.63-1.21l-.56-3.26c-1.26,1.47-2.7,2.65-4.32,3.55-1.6.9-3.46,1.35-5.59,1.35-1.7,0-3.23-.34-4.62-1-1.38-.69-2.57-1.67-3.55-2.97-.99-1.29-1.76-2.89-2.31-4.79-.53-1.92-.8-4.11-.8-6.58,0-2.23.3-4.3.89-6.2.61-1.9,1.48-3.55,2.6-4.94,1.12-1.41,2.49-2.51,4.08-3.29,1.62-.8,3.42-1.2,5.41-1.2,1.78,0,3.29.28,4.53.85,1.24.55,2.36,1.32,3.34,2.32v-16.13h6.36ZM1331.51,430.76c-.89-1.14-1.86-1.93-2.93-2.38-1.07-.45-2.22-.68-3.46-.68-2.49,0-4.43.91-5.83,2.73-1.4,1.8-2.1,4.47-2.1,8.02,0,1.84.16,3.42.47,4.73.32,1.29.77,2.35,1.36,3.17.59.82,1.31,1.42,2.16,1.79.85.37,1.81.56,2.87.56,1.62,0,3.01-.34,4.17-1.03,1.18-.71,2.28-1.69,3.28-2.97v-13.96Z"/>
      <path class="cls-2" d="M1273.16,427.84c3.41-3.15,7.47-4.73,12.19-4.73,1.74,0,3.27.28,4.62.85,1.36.55,2.49,1.33,3.4,2.35.93,1.02,1.63,2.23,2.1,3.64.49,1.39.74,2.94.74,4.64v19.04h-2.84c-.61,0-1.08-.09-1.39-.26-.31-.2-.58-.58-.8-1.15l-.62-2.44c-.77.69-1.53,1.3-2.28,1.85-.75.53-1.53.98-2.34,1.35-.79.37-1.65.65-2.57.82-.91.2-1.91.3-3.02.3-1.22,0-2.37-.17-3.43-.5-1.04-.33-1.95-.83-2.72-1.5-.77-.69-1.38-1.53-1.84-2.53-.44-1-.65-2.17-.65-3.53,0-1.15.3-2.28.92-3.38.63-1.1,1.66-2.08,3.08-2.94,1.44-.88,3.32-1.61,5.65-2.17,2.35-.57,5.24-.89,8.67-.97v-2c0-2.15-.46-3.76-1.39-4.82-.93-1.06-2.29-1.59-4.09-1.59-1.22,0-2.25.16-3.07.47-.83.29-1.55.62-2.16.97-.61.35-1.15.69-1.63,1-.48.29-.98.44-1.51.44-.43,0-.81-.11-1.12-.32-.3-.24-.54-.52-.74-.85l-1.15-2.06ZM1290.03,440.54c-2.27.08-4.18.26-5.74.56-1.56.27-2.82.64-3.79,1.09-.97.43-1.67.95-2.1,1.56-.41.61-.62,1.28-.62,2s.11,1.31.33,1.82c.24.49.55.9.95,1.23.41.31.89.55,1.42.71.55.14,1.15.2,1.8.2,1.66,0,3.08-.3,4.26-.91,1.2-.63,2.37-1.53,3.49-2.7v-5.55ZM1266.8,429.55c-.2.26-.38.45-.56.59-.18.14-.43.2-.77.2s-.69-.12-1.07-.35c-.35-.23-.79-.49-1.3-.76-.49-.29-1.09-.56-1.8-.79-.71-.24-1.6-.35-2.66-.35-1.38,0-2.59.24-3.64.73-1.03.49-1.89,1.2-2.6,2.12-.69.9-1.21,2.01-1.57,3.32-.33,1.29-.5,2.75-.5,4.38s.19,3.18.56,4.5c.37,1.31.91,2.42,1.6,3.32.71.9,1.56,1.59,2.54,2.06,1.01.47,2.13.71,3.37.71s2.22-.15,2.99-.44c.77-.29,1.41-.62,1.92-.97.51-.35.95-.68,1.3-.97.37-.29.77-.44,1.18-.44.51,0,.91.2,1.18.59l1.8,2.32c-.73.88-1.54,1.63-2.43,2.23-.89.61-1.82,1.11-2.81,1.5-.99.37-2.01.64-3.08.79-1.07.18-2.14.27-3.23.27-1.87,0-3.63-.34-5.27-1.03-1.62-.71-3.04-1.72-4.26-3.03-1.21-1.33-2.16-2.95-2.87-4.85-.69-1.92-1.03-4.1-1.03-6.55,0-2.21.31-4.26.94-6.14.63-1.9,1.55-3.53,2.75-4.91,1.22-1.37,2.73-2.44,4.53-3.2,1.79-.78,3.86-1.18,6.21-1.18,2.19,0,4.11.35,5.77,1.06,1.68.7,3.16,1.7,4.47,3l-1.69,2.29ZM1238.54,414.62c0,.57-.12,1.1-.35,1.61-.22.51-.52.96-.92,1.35-.39.37-.86.68-1.39.91-.51.21-1.07.32-1.66.32s-1.12-.11-1.63-.32c-.49-.24-.93-.54-1.3-.91-.38-.39-.68-.84-.92-1.35-.22-.51-.33-1.05-.33-1.61s.11-1.14.33-1.65c.24-.51.54-.95.92-1.32.37-.39.81-.69,1.3-.91.51-.23,1.05-.35,1.63-.35s1.14.12,1.66.35c.53.22,1,.52,1.39.91.39.37.7.81.92,1.32.24.51.35,1.06.35,1.65ZM1237.48,423.67v29.97h-6.36v-29.97h6.36ZM1225.83,424.76v2.35c0,.78-.47,1.26-1.42,1.44l-3.02.5c.51,1.14.77,2.4.77,3.79,0,1.47-.3,2.8-.89,4-.57,1.19-1.37,2.21-2.4,3.05-1.02.84-2.25,1.49-3.67,1.94-1.42.45-2.96.68-4.62.68-.63,0-1.25-.03-1.86-.09-.59-.08-1.18-.18-1.75-.29-.57.33-1,.69-1.27,1.06-.28.37-.41.75-.41,1.14,0,.65.29,1.13.86,1.44.57.31,1.32.54,2.25.68.95.14,2.02.23,3.22.27,1.21.04,2.43.11,3.67.2,1.24.1,2.47.26,3.67.5,1.2.21,2.27.59,3.2,1.11.94.51,1.7,1.21,2.28,2.09.57.88.86,2.03.86,3.44,0,1.29-.32,2.55-.98,3.79-.65,1.23-1.6,2.33-2.84,3.29-1.22.96-2.72,1.72-4.5,2.29-1.78.59-3.8.88-6.07.88s-4.21-.22-5.89-.65c-1.66-.43-3.05-1.02-4.17-1.76-1.1-.72-1.93-1.56-2.49-2.53-.53-.96-.8-1.96-.8-3,0-1.41.44-2.62,1.33-3.62.91-1,2.13-1.78,3.67-2.35-.83-.39-1.5-.93-2.01-1.62-.49-.69-.74-1.59-.74-2.7,0-.88.33-1.8.98-2.76.65-.96,1.63-1.77,2.93-2.44-1.5-.82-2.68-1.91-3.55-3.26-.87-1.37-1.3-2.97-1.3-4.79,0-1.49.29-2.83.86-4.03.59-1.19,1.41-2.21,2.46-3.05,1.05-.84,2.28-1.49,3.7-1.94,1.44-.45,3.01-.68,4.7-.68,2.6,0,4.87.54,6.81,1.62h8.43ZM1219.44,455.11c0-.67-.2-1.2-.59-1.59-.38-.41-.89-.73-1.54-.94-.65-.24-1.41-.4-2.28-.5-.87-.12-1.8-.2-2.78-.23-.97-.06-1.96-.11-2.99-.15-1.01-.06-1.98-.16-2.93-.29-.95.49-1.73,1.08-2.34,1.76-.59.69-.89,1.48-.89,2.38,0,.59.15,1.14.45,1.65.31.51.79.95,1.42,1.32.65.37,1.47.67,2.46.88,1.01.21,2.21.32,3.61.32,2.8,0,4.9-.43,6.3-1.29,1.4-.86,2.1-1.97,2.1-3.32ZM1210.59,438.39c1.97,0,3.45-.5,4.44-1.5.98-1,1.48-2.3,1.48-3.91s-.49-2.95-1.48-3.91c-.99-.96-2.47-1.44-4.44-1.44s-3.43.48-4.44,1.44c-.99.96-1.48,2.26-1.48,3.91,0,.78.13,1.51.39,2.18.26.67.63,1.24,1.12,1.73.49.47,1.1.84,1.83,1.11.75.25,1.61.38,2.57.38ZM1188.8,410.86l-7.13,7.61c-.32.35-.63.6-.95.73-.3.14-.69.21-1.18.21h-3.79l4.29-7.11c.28-.49.59-.85.95-1.09.38-.24.92-.35,1.63-.35h6.18ZM1179.3,449.15c2.72,0,4.74-.9,6.07-2.7,1.34-1.82,2.01-4.42,2.01-7.79s-.67-5.97-2.01-7.79c-1.32-1.84-3.34-2.76-6.07-2.76s-4.81.92-6.15,2.76c-1.34,1.82-2.01,4.42-2.01,7.79s.67,5.96,2.01,7.79c1.34,1.8,3.39,2.7,6.15,2.7ZM1179.3,423.2c2.23,0,4.24.36,6.04,1.09,1.81.73,3.35,1.75,4.62,3.09,1.28,1.33,2.27,2.95,2.96,4.85.69,1.9,1.04,4.03,1.04,6.41s-.34,4.5-1.04,6.41c-.69,1.9-1.68,3.52-2.96,4.88-1.26,1.33-2.8,2.36-4.62,3.09-1.8.72-3.81,1.09-6.04,1.09s-4.28-.36-6.09-1.09c-1.8-.72-3.33-1.75-4.62-3.09-1.28-1.35-2.27-2.98-2.96-4.88-.69-1.9-1.04-4.03-1.04-6.41s.35-4.51,1.04-6.41c.69-1.9,1.68-3.52,2.96-4.85,1.28-1.33,2.82-2.36,4.62-3.09,1.81-.73,3.85-1.09,6.09-1.09ZM1158.4,410.16v43.49h-6.36v-43.49h6.36ZM1131.17,449.15c2.72,0,4.75-.9,6.07-2.7,1.34-1.82,2.01-4.42,2.01-7.79s-.67-5.97-2.01-7.79c-1.32-1.84-3.34-2.76-6.07-2.76s-4.81.92-6.15,2.76c-1.34,1.82-2.01,4.42-2.01,7.79s.67,5.96,2.01,7.79c1.34,1.8,3.39,2.7,6.15,2.7ZM1131.17,423.2c2.23,0,4.24.36,6.04,1.09,1.81.73,3.35,1.75,4.62,3.09,1.28,1.33,2.27,2.95,2.96,4.85.69,1.9,1.03,4.03,1.03,6.41s-.34,4.5-1.03,6.41c-.69,1.9-1.68,3.52-2.96,4.88-1.26,1.33-2.8,2.36-4.62,3.09-1.8.72-3.81,1.09-6.04,1.09s-4.28-.36-6.09-1.09c-1.8-.72-3.33-1.75-4.61-3.09-1.28-1.35-2.27-2.98-2.96-4.88-.69-1.9-1.03-4.03-1.03-6.41s.34-4.51,1.03-6.41c.69-1.9,1.68-3.52,2.96-4.85,1.28-1.33,2.82-2.36,4.61-3.09,1.81-.73,3.85-1.09,6.09-1.09ZM1090.9,427.64c.65-.67,1.32-1.26,2.01-1.79.71-.55,1.46-1.02,2.25-1.41.79-.39,1.63-.7,2.51-.91.89-.22,1.85-.32,2.9-.32,1.66,0,3.11.27,4.35.82,1.26.55,2.32,1.32,3.16,2.32.87,1,1.52,2.2,1.95,3.61.44,1.39.65,2.93.65,4.61v19.07h-6.33v-19.07c0-2.02-.47-3.59-1.42-4.7-.93-1.11-2.34-1.67-4.26-1.67-1.42,0-2.74.32-3.96.97-1.2.65-2.34,1.53-3.4,2.65v21.83h-6.36v-29.97h3.85c.87,0,1.42.4,1.66,1.21l.44,2.76ZM1077.85,429.55c-.2.26-.38.45-.56.59-.18.14-.43.2-.77.2s-.69-.12-1.07-.35c-.35-.23-.79-.49-1.3-.76-.49-.29-1.1-.56-1.8-.79-.71-.24-1.6-.35-2.66-.35-1.38,0-2.6.24-3.64.73-1.03.49-1.9,1.2-2.6,2.12-.69.9-1.21,2.01-1.57,3.32-.34,1.29-.5,2.75-.5,4.38s.19,3.18.56,4.5c.37,1.31.91,2.42,1.6,3.32.71.9,1.56,1.59,2.54,2.06,1.01.47,2.13.71,3.37.71s2.22-.15,2.99-.44c.77-.29,1.41-.62,1.92-.97.51-.35.95-.68,1.3-.97.38-.29.77-.44,1.18-.44.51,0,.91.2,1.18.59l1.81,2.32c-.73.88-1.54,1.63-2.43,2.23-.89.61-1.83,1.11-2.81,1.5-.99.37-2.01.64-3.08.79-1.07.18-2.14.27-3.22.27-1.87,0-3.63-.34-5.27-1.03-1.62-.71-3.04-1.72-4.26-3.03-1.2-1.33-2.16-2.95-2.87-4.85-.69-1.92-1.04-4.1-1.04-6.55,0-2.21.32-4.26.95-6.14.63-1.9,1.55-3.53,2.75-4.91,1.22-1.37,2.73-2.44,4.52-3.2,1.8-.78,3.87-1.18,6.21-1.18,2.19,0,4.11.35,5.77,1.06,1.68.7,3.17,1.7,4.47,3l-1.69,2.29ZM1029.7,439.16c.08,1.7.34,3.18.8,4.43.45,1.24,1.05,2.26,1.8,3.09.77.82,1.68,1.44,2.72,1.85,1.07.39,2.25.59,3.55.59s2.32-.14,3.22-.41c.91-.29,1.7-.61,2.37-.94.67-.35,1.24-.67,1.71-.94.48-.29.91-.44,1.3-.44.51,0,.91.2,1.18.59l1.81,2.32c-.75.88-1.6,1.63-2.54,2.23-.95.61-1.95,1.11-3.02,1.5-1.06.37-2.16.64-3.28.79-1.12.18-2.22.27-3.29.27-2.09,0-4.03-.34-5.83-1.03-1.77-.71-3.32-1.73-4.64-3.09-1.3-1.35-2.33-3.03-3.08-5.02-.73-2-1.1-4.3-1.1-6.91,0-2.08.32-4.02.98-5.82.67-1.8,1.62-3.37,2.84-4.7,1.24-1.33,2.74-2.38,4.5-3.14,1.77-.78,3.78-1.18,6.01-1.18,1.85,0,3.57.3,5.15.91,1.58.59,2.94,1.46,4.08,2.62,1.14,1.16,2.03,2.58,2.66,4.26.65,1.66.98,3.57.98,5.7,0,.98-.11,1.64-.33,1.97-.22.33-.61.5-1.18.5h-19.38ZM1044.88,435.28c0-1.06-.16-2.04-.47-2.94-.3-.92-.74-1.71-1.33-2.38-.59-.69-1.33-1.21-2.22-1.59-.87-.39-1.87-.59-3.02-.59-2.31,0-4.12.66-5.45,1.97-1.32,1.31-2.16,3.15-2.51,5.52h15ZM1027.51,417.06h-13.29v36.58h-6.89v-36.58h-13.31v-5.73h33.49v5.73ZM963.31,449.15c2.72,0,4.74-.9,6.07-2.7,1.34-1.82,2.01-4.42,2.01-7.79s-.67-5.97-2.01-7.79c-1.32-1.84-3.34-2.76-6.07-2.76s-4.81.92-6.15,2.76c-1.34,1.82-2.01,4.42-2.01,7.79s.67,5.96,2.01,7.79c1.34,1.8,3.39,2.7,6.15,2.7ZM963.31,423.2c2.23,0,4.24.36,6.04,1.09,1.81.73,3.35,1.75,4.61,3.09,1.28,1.33,2.27,2.95,2.96,4.85.69,1.9,1.03,4.03,1.03,6.41s-.34,4.5-1.03,6.41c-.69,1.9-1.68,3.52-2.96,4.88-1.26,1.33-2.8,2.36-4.61,3.09-1.8.72-3.81,1.09-6.04,1.09s-4.28-.36-6.1-1.09c-1.8-.72-3.33-1.75-4.61-3.09-1.28-1.35-2.27-2.98-2.96-4.88-.69-1.9-1.03-4.03-1.03-6.41s.34-4.51,1.03-6.41c.69-1.9,1.68-3.52,2.96-4.85,1.28-1.33,2.82-2.36,4.61-3.09,1.81-.73,3.85-1.09,6.1-1.09ZM934.5,414.15c.63,0,1.12-.17,1.48-.53.35-.37.54-.98.56-1.82h3.88c0,1.02-.14,1.95-.41,2.79-.28.82-.67,1.54-1.18,2.14-.49.59-1.09,1.05-1.8,1.38-.69.31-1.45.47-2.28.47-.69,0-1.34-.13-1.95-.38-.61-.27-1.18-.57-1.71-.88-.53-.31-1.04-.6-1.51-.85-.47-.27-.92-.41-1.33-.41-.63,0-1.12.2-1.48.59-.36.37-.53.98-.53,1.82h-3.93c0-1.02.14-1.95.41-2.79.3-.84.69-1.56,1.18-2.14.51-.61,1.11-1.08,1.81-1.41.71-.33,1.48-.5,2.31-.5.71,0,1.37.14,1.98.41.61.25,1.18.54,1.72.85.53.31,1.03.61,1.48.88.47.26.92.38,1.33.38ZM919.76,427.84c3.41-3.15,7.47-4.73,12.19-4.73,1.74,0,3.27.28,4.62.85,1.36.55,2.49,1.33,3.4,2.35.93,1.02,1.63,2.23,2.1,3.64.49,1.39.74,2.94.74,4.64v19.04h-2.84c-.61,0-1.08-.09-1.39-.26-.31-.2-.58-.58-.8-1.15l-.62-2.44c-.77.69-1.53,1.3-2.28,1.85-.75.53-1.53.98-2.34,1.35-.79.37-1.65.65-2.57.82-.91.2-1.91.3-3.02.3-1.22,0-2.37-.17-3.43-.5-1.04-.33-1.95-.83-2.72-1.5-.77-.69-1.38-1.53-1.84-2.53-.44-1-.65-2.17-.65-3.53,0-1.15.3-2.28.92-3.38.63-1.1,1.66-2.08,3.08-2.94,1.44-.88,3.32-1.61,5.65-2.17,2.35-.57,5.24-.89,8.67-.97v-2c0-2.15-.46-3.76-1.39-4.82-.93-1.06-2.29-1.59-4.09-1.59-1.22,0-2.25.16-3.08.47-.83.29-1.55.62-2.16.97-.61.35-1.15.69-1.63,1-.48.29-.98.44-1.51.44-.43,0-.81-.11-1.12-.32-.3-.24-.54-.52-.74-.85l-1.15-2.06ZM936.63,440.54c-2.27.08-4.18.26-5.74.56-1.56.27-2.82.64-3.79,1.09-.97.43-1.67.95-2.1,1.56-.41.61-.62,1.28-.62,2s.11,1.31.32,1.82c.24.49.55.9.95,1.23.41.31.89.55,1.42.71.55.14,1.15.2,1.8.2,1.66,0,3.08-.3,4.26-.91,1.2-.63,2.37-1.53,3.49-2.7v-5.55ZM915.39,449.29c-1.24,1.49-2.69,2.61-4.35,3.35-1.66.72-3.4,1.17-5.24,1.35l-.44,1.61c1.83.39,3.13.95,3.9,1.68.79.73,1.18,1.61,1.18,2.65,0,.64-.17,1.22-.5,1.73-.34.53-.81.97-1.42,1.32-.59.37-1.31.66-2.16.85-.83.2-1.74.29-2.75.29-.81,0-1.58-.07-2.31-.2-.71-.14-1.38-.34-2.01-.59l.59-1.97c.12-.41.38-.62.77-.62.12,0,.25.03.38.09.16.06.34.12.53.18.22.08.45.15.71.2.28.06.6.09.98.09.73,0,1.27-.15,1.63-.44.38-.27.56-.62.56-1.03,0-.67-.38-1.14-1.15-1.41-.75-.26-1.87-.49-3.37-.71l1.27-3.73c-1.68-.2-3.24-.68-4.68-1.44-1.42-.78-2.66-1.83-3.73-3.14-1.04-1.31-1.87-2.87-2.49-4.67-.59-1.8-.89-3.84-.89-6.11s.31-4.26.94-6.14c.63-1.9,1.55-3.53,2.75-4.91,1.22-1.37,2.73-2.44,4.53-3.2,1.79-.78,3.86-1.18,6.21-1.18,2.19,0,4.11.35,5.77,1.06,1.68.7,3.17,1.7,4.47,3l-1.69,2.29c-.2.26-.38.45-.56.59-.18.14-.43.2-.77.2s-.69-.12-1.07-.35c-.35-.23-.79-.49-1.3-.76-.49-.29-1.09-.56-1.8-.79-.71-.24-1.6-.35-2.66-.35-1.38,0-2.59.24-3.64.73-1.03.49-1.89,1.2-2.6,2.12-.69.9-1.21,2.01-1.57,3.32-.33,1.29-.5,2.75-.5,4.38s.19,3.18.56,4.5c.37,1.31.91,2.42,1.6,3.32.71.9,1.56,1.59,2.54,2.06,1.01.47,2.13.71,3.37.71s2.22-.15,2.99-.44c.77-.29,1.41-.62,1.92-.97.51-.35.95-.68,1.3-.97.37-.29.77-.44,1.18-.44.51,0,.91.2,1.18.59l1.8,2.32ZM861.57,427.84c3.41-3.15,7.48-4.73,12.19-4.73,1.74,0,3.27.28,4.62.85,1.36.55,2.49,1.33,3.4,2.35.93,1.02,1.63,2.23,2.1,3.64.49,1.39.74,2.94.74,4.64v19.04h-2.84c-.61,0-1.08-.09-1.39-.26-.31-.2-.58-.58-.8-1.15l-.62-2.44c-.77.69-1.53,1.3-2.28,1.85-.75.53-1.53.98-2.34,1.35-.79.37-1.65.65-2.57.82-.91.2-1.91.3-3.02.3-1.22,0-2.37-.17-3.43-.5-1.05-.33-1.95-.83-2.72-1.5-.77-.69-1.38-1.53-1.83-2.53-.44-1-.65-2.17-.65-3.53,0-1.15.31-2.28.92-3.38.63-1.1,1.66-2.08,3.08-2.94,1.44-.88,3.32-1.61,5.65-2.17,2.35-.57,5.24-.89,8.67-.97v-2c0-2.15-.46-3.76-1.39-4.82-.93-1.06-2.29-1.59-4.08-1.59-1.22,0-2.25.16-3.08.47-.83.29-1.55.62-2.16.97-.61.35-1.15.69-1.63,1-.48.29-.98.44-1.51.44-.43,0-.81-.11-1.12-.32-.3-.24-.54-.52-.74-.85l-1.15-2.06ZM878.44,440.54c-2.27.08-4.18.26-5.74.56-1.56.27-2.82.64-3.79,1.09-.97.43-1.67.95-2.1,1.56-.41.61-.62,1.28-.62,2s.11,1.31.32,1.82c.24.49.55.9.95,1.23.41.31.89.55,1.42.71.55.14,1.15.2,1.8.2,1.66,0,3.08-.3,4.26-.91,1.2-.63,2.37-1.53,3.49-2.7v-5.55ZM858.66,423.67l-12.13,29.97h-5.74l-12.13-29.97h5.24c.49,0,.9.13,1.21.38.34.24.55.52.65.85l6.68,17.45c.28.82.52,1.64.74,2.44.22.8.4,1.62.56,2.44.16-.82.35-1.63.56-2.41.24-.8.49-1.62.77-2.47l6.8-17.45c.12-.35.34-.65.65-.88.31-.23.7-.35,1.15-.35h4.97ZM812.21,449.15c2.72,0,4.74-.9,6.07-2.7,1.34-1.82,2.01-4.42,2.01-7.79s-.67-5.97-2.01-7.79c-1.32-1.84-3.34-2.76-6.07-2.76s-4.81.92-6.15,2.76c-1.34,1.82-2.01,4.42-2.01,7.79s.67,5.96,2.01,7.79c1.34,1.8,3.39,2.7,6.15,2.7ZM812.21,423.2c2.23,0,4.24.36,6.04,1.09,1.81.73,3.35,1.75,4.62,3.09,1.28,1.33,2.27,2.95,2.96,4.85.69,1.9,1.04,4.03,1.04,6.41s-.35,4.5-1.04,6.41c-.69,1.9-1.67,3.52-2.96,4.88-1.26,1.33-2.8,2.36-4.62,3.09-1.8.72-3.81,1.09-6.04,1.09s-4.28-.36-6.1-1.09c-1.79-.72-3.33-1.75-4.62-3.09-1.28-1.35-2.27-2.98-2.96-4.88-.69-1.9-1.04-4.03-1.04-6.41s.35-4.51,1.04-6.41c.69-1.9,1.68-3.52,2.96-4.85,1.28-1.33,2.82-2.36,4.62-3.09,1.81-.73,3.85-1.09,6.1-1.09ZM771.94,427.64c.65-.67,1.32-1.26,2.01-1.79.71-.55,1.46-1.02,2.25-1.41.79-.39,1.63-.7,2.51-.91.89-.22,1.85-.32,2.9-.32,1.66,0,3.11.27,4.35.82,1.26.55,2.32,1.32,3.17,2.32.87,1,1.52,2.2,1.95,3.61.43,1.39.65,2.93.65,4.61v19.07h-6.33v-19.07c0-2.02-.48-3.59-1.42-4.7-.93-1.11-2.35-1.67-4.26-1.67-1.42,0-2.74.32-3.96.97-1.2.65-2.34,1.53-3.4,2.65v21.83h-6.36v-29.97h3.85c.87,0,1.42.4,1.66,1.21l.44,2.76ZM757.54,453.64h-6.95v-42.31h6.95v42.31ZM707.85,439.16c.08,1.7.35,3.18.8,4.43.45,1.24,1.06,2.26,1.81,3.09.77.82,1.68,1.44,2.72,1.85,1.07.39,2.25.59,3.55.59s2.32-.14,3.23-.41c.91-.29,1.7-.61,2.37-.94.67-.35,1.24-.67,1.72-.94.47-.29.91-.44,1.3-.44.51,0,.91.2,1.18.59l1.8,2.32c-.75.88-1.6,1.63-2.54,2.23-.95.61-1.95,1.11-3.02,1.5-1.07.37-2.16.64-3.28.79-1.12.18-2.22.27-3.29.27-2.09,0-4.03-.34-5.83-1.03-1.78-.71-3.32-1.73-4.65-3.09-1.3-1.35-2.33-3.03-3.08-5.02-.73-2-1.09-4.3-1.09-6.91,0-2.08.32-4.02.97-5.82.67-1.8,1.62-3.37,2.84-4.7,1.24-1.33,2.74-2.38,4.5-3.14,1.78-.78,3.78-1.18,6.01-1.18,1.85,0,3.57.3,5.15.91,1.58.59,2.94,1.46,4.09,2.62,1.14,1.16,2.03,2.58,2.66,4.26.65,1.66.98,3.57.98,5.7,0,.98-.11,1.64-.33,1.97-.21.33-.61.5-1.18.5h-19.38ZM723.03,435.28c0-1.06-.16-2.04-.47-2.94-.3-.92-.74-1.71-1.33-2.38-.59-.69-1.33-1.21-2.22-1.59-.87-.39-1.87-.59-3.02-.59-2.31,0-4.12.66-5.44,1.97-1.32,1.31-2.16,3.15-2.51,5.52h15ZM695.46,410.16v43.49h-3.85c-.85,0-1.39-.4-1.63-1.2l-.56-3.26c-1.26,1.47-2.7,2.65-4.32,3.55-1.6.9-3.46,1.35-5.59,1.35-1.7,0-3.24-.33-4.62-1-1.38-.69-2.57-1.67-3.55-2.97-.99-1.29-1.76-2.89-2.31-4.79-.53-1.92-.8-4.12-.8-6.58,0-2.23.3-4.3.89-6.2.61-1.9,1.48-3.55,2.6-4.94,1.12-1.41,2.49-2.51,4.08-3.29,1.62-.8,3.42-1.21,5.41-1.21,1.77,0,3.28.28,4.53.85,1.24.55,2.36,1.32,3.34,2.32v-16.13h6.36ZM689.1,431.05c-.89-1.14-1.86-1.93-2.93-2.38-1.07-.45-2.22-.68-3.46-.68-2.49,0-4.43.91-5.83,2.73-1.4,1.8-2.1,4.48-2.1,8.02,0,1.84.16,3.42.47,4.73.31,1.29.77,2.35,1.36,3.17.59.82,1.31,1.42,2.16,1.79.85.37,1.8.56,2.87.56,1.62,0,3.01-.34,4.17-1.03,1.18-.71,2.28-1.69,3.28-2.97v-13.96ZM624.61,427.84c3.41-3.15,7.47-4.73,12.19-4.73,1.74,0,3.27.28,4.62.85,1.36.55,2.5,1.33,3.4,2.35.93,1.02,1.63,2.23,2.1,3.64.49,1.39.74,2.94.74,4.64v19.04h-2.84c-.61,0-1.08-.09-1.39-.26-.31-.2-.58-.58-.8-1.15l-.62-2.44c-.77.69-1.53,1.3-2.28,1.85-.75.53-1.53.98-2.34,1.35-.79.37-1.65.65-2.57.82-.91.2-1.91.3-3.02.3-1.22,0-2.37-.17-3.43-.5-1.04-.33-1.95-.83-2.72-1.5-.77-.69-1.38-1.53-1.83-2.53-.44-1-.65-2.17-.65-3.53,0-1.15.31-2.28.92-3.38.63-1.1,1.66-2.08,3.08-2.94,1.44-.88,3.32-1.61,5.65-2.17,2.35-.57,5.24-.89,8.67-.97v-2c0-2.15-.46-3.76-1.39-4.82-.93-1.06-2.29-1.59-4.08-1.59-1.22,0-2.25.16-3.08.47-.83.29-1.55.62-2.16.97-.61.35-1.15.69-1.63,1-.47.29-.98.44-1.51.44-.43,0-.81-.11-1.12-.32-.29-.24-.54-.52-.74-.85l-1.15-2.06ZM641.47,440.54c-2.27.08-4.18.26-5.74.56-1.56.27-2.82.64-3.79,1.09-.97.43-1.67.95-2.1,1.56-.42.61-.62,1.28-.62,2s.11,1.31.32,1.82c.24.49.55.9.95,1.23.41.31.89.55,1.42.71.55.14,1.15.2,1.81.2,1.66,0,3.08-.3,4.26-.91,1.2-.63,2.37-1.53,3.49-2.7v-5.55ZM618.42,414.62c0,.57-.12,1.1-.35,1.61-.22.51-.52.96-.92,1.35-.39.37-.86.68-1.39.91-.51.21-1.07.32-1.66.32s-1.11-.11-1.63-.32c-.49-.24-.93-.54-1.3-.91-.37-.39-.68-.84-.92-1.35-.22-.51-.32-1.05-.32-1.61s.11-1.14.32-1.65c.24-.51.54-.95.92-1.32.38-.39.81-.69,1.3-.91.51-.23,1.05-.35,1.63-.35s1.14.12,1.66.35c.53.22,1,.52,1.39.91.39.37.7.81.92,1.32.24.51.35,1.06.35,1.65ZM617.36,423.67v29.97h-6.36v-29.97h6.36ZM603.63,429.55c-.2.26-.38.45-.56.59-.18.14-.43.2-.77.2s-.69-.12-1.07-.35c-.35-.23-.79-.49-1.3-.76-.49-.29-1.1-.56-1.81-.79-.71-.24-1.6-.35-2.66-.35-1.38,0-2.59.24-3.64.73-1.03.49-1.89,1.2-2.6,2.12-.69.9-1.21,2.01-1.57,3.32-.34,1.29-.5,2.75-.5,4.38s.19,3.18.56,4.5.91,2.42,1.6,3.32c.71.9,1.56,1.59,2.54,2.06,1.01.47,2.13.71,3.37.71s2.22-.15,2.99-.44c.77-.29,1.41-.62,1.92-.97.51-.35.95-.68,1.3-.97.38-.29.77-.44,1.18-.44.51,0,.91.2,1.18.59l1.8,2.32c-.73.88-1.54,1.63-2.43,2.23s-1.83,1.11-2.81,1.5c-.98.37-2.01.64-3.08.79-1.07.18-2.14.27-3.23.27-1.87,0-3.63-.34-5.27-1.03-1.62-.71-3.04-1.72-4.26-3.03-1.2-1.33-2.16-2.95-2.87-4.85-.69-1.92-1.04-4.1-1.04-6.55,0-2.21.32-4.26.95-6.14.63-1.9,1.55-3.53,2.75-4.91,1.22-1.37,2.73-2.44,4.53-3.2,1.79-.78,3.87-1.18,6.21-1.18,2.19,0,4.11.35,5.77,1.06,1.68.7,3.16,1.7,4.47,3l-1.68,2.29ZM555.08,427.64c.65-.67,1.32-1.26,2.01-1.79.71-.55,1.46-1.02,2.25-1.41.79-.39,1.63-.7,2.51-.91.89-.22,1.85-.32,2.9-.32,1.66,0,3.11.27,4.35.82,1.26.55,2.32,1.32,3.17,2.32.87,1,1.52,2.2,1.95,3.61.44,1.39.65,2.93.65,4.61v19.07h-6.33v-19.07c0-2.02-.47-3.59-1.42-4.7-.93-1.11-2.35-1.67-4.26-1.67-1.42,0-2.74.32-3.97.97-1.2.65-2.34,1.53-3.4,2.65v21.83h-6.36v-29.97h3.85c.87,0,1.42.4,1.66,1.21l.44,2.76ZM540.15,419.29h-4.26c-.26,0-.51-.04-.77-.12-.24-.08-.48-.25-.74-.53l-3.25-3.41c-.18-.17-.36-.38-.53-.62-.1.12-.2.22-.29.32-.08.1-.17.2-.27.29l-3.31,3.41c-.22.21-.45.38-.71.5-.26.1-.52.15-.8.15h-4.41l6.72-7.96h5.92l6.71,7.96ZM522.31,439.16c.08,1.7.35,3.18.8,4.43.45,1.24,1.06,2.26,1.81,3.09.77.82,1.68,1.44,2.72,1.85,1.07.39,2.25.59,3.55.59s2.32-.14,3.22-.41c.91-.29,1.7-.61,2.37-.94.67-.35,1.24-.67,1.72-.94.47-.29.91-.44,1.3-.44.51,0,.91.2,1.18.59l1.8,2.32c-.75.88-1.6,1.63-2.54,2.23-.95.61-1.95,1.11-3.02,1.5-1.07.37-2.16.64-3.29.79-1.12.18-2.22.27-3.29.27-2.09,0-4.03-.34-5.83-1.03-1.77-.71-3.32-1.73-4.64-3.09-1.3-1.35-2.33-3.03-3.08-5.02-.73-2-1.09-4.3-1.09-6.91,0-2.08.33-4.02.98-5.82.67-1.8,1.62-3.37,2.84-4.7,1.24-1.33,2.74-2.38,4.5-3.14,1.78-.78,3.78-1.18,6.01-1.18,1.85,0,3.57.3,5.15.91,1.58.59,2.94,1.46,4.08,2.62,1.14,1.16,2.03,2.58,2.66,4.26.65,1.66.98,3.57.98,5.7,0,.98-.11,1.64-.32,1.97-.22.33-.61.5-1.18.5h-19.38ZM537.49,435.28c0-1.06-.16-2.04-.47-2.94-.3-.92-.74-1.71-1.33-2.38-.59-.69-1.33-1.21-2.22-1.59-.87-.39-1.87-.59-3.02-.59-2.31,0-4.12.66-5.44,1.97-1.32,1.31-2.16,3.15-2.51,5.52h15ZM513.19,424.76v2.35c0,.78-.47,1.26-1.42,1.44l-3.02.5c.51,1.14.77,2.4.77,3.79,0,1.47-.29,2.8-.89,4-.57,1.19-1.37,2.21-2.4,3.05-1.03.84-2.25,1.49-3.67,1.94-1.42.45-2.96.68-4.61.68-.63,0-1.25-.03-1.87-.09-.59-.08-1.17-.18-1.74-.29-.57.33-1,.69-1.27,1.06-.28.37-.42.75-.42,1.14,0,.65.29,1.13.86,1.44.57.31,1.32.54,2.25.68.95.14,2.02.23,3.23.27,1.2.04,2.43.11,3.67.2,1.24.1,2.47.26,3.67.5,1.2.21,2.27.59,3.19,1.11.95.51,1.71,1.21,2.28,2.09.57.88.86,2.03.86,3.44,0,1.29-.32,2.55-.98,3.79-.65,1.23-1.6,2.33-2.84,3.29-1.22.96-2.72,1.72-4.5,2.29-1.78.59-3.8.88-6.07.88s-4.21-.22-5.89-.65c-1.66-.43-3.05-1.02-4.17-1.76-1.1-.72-1.93-1.56-2.49-2.53-.53-.96-.8-1.96-.8-3,0-1.41.44-2.62,1.33-3.62.91-1,2.13-1.78,3.67-2.35-.83-.39-1.5-.93-2.01-1.62-.49-.69-.74-1.59-.74-2.7,0-.88.32-1.8.98-2.76.65-.96,1.63-1.77,2.93-2.44-1.5-.82-2.68-1.91-3.55-3.26-.87-1.37-1.3-2.97-1.3-4.79,0-1.49.29-2.83.86-4.03.59-1.19,1.41-2.21,2.46-3.05,1.04-.84,2.28-1.49,3.7-1.94,1.44-.45,3.01-.68,4.7-.68,2.6,0,4.87.54,6.8,1.62h8.43ZM506.8,455.11c0-.67-.2-1.2-.59-1.59-.38-.41-.89-.73-1.54-.94-.65-.24-1.41-.4-2.28-.5-.87-.12-1.79-.2-2.78-.23-.97-.06-1.96-.11-2.99-.15-1.01-.06-1.98-.16-2.93-.29-.95.49-1.73,1.08-2.34,1.76-.59.69-.89,1.48-.89,2.38,0,.59.15,1.14.44,1.65.32.51.79.95,1.42,1.32.65.37,1.47.67,2.46.88,1.01.21,2.21.32,3.61.32,2.8,0,4.9-.43,6.3-1.29,1.4-.86,2.1-1.97,2.1-3.32ZM497.96,438.39c1.97,0,3.45-.5,4.44-1.5.99-1,1.48-2.3,1.48-3.91s-.49-2.95-1.48-3.91c-.98-.96-2.46-1.44-4.44-1.44s-3.43.48-4.44,1.44c-.99.96-1.48,2.26-1.48,3.91,0,.78.13,1.51.38,2.18.26.67.63,1.24,1.12,1.73.49.47,1.11.84,1.84,1.11.75.25,1.61.38,2.57.38ZM483.4,453.64h-5.35c-.61,0-1.1-.15-1.48-.44-.37-.31-.66-.7-.86-1.15l-3.55-9.34h-18.34l-3.55,9.34c-.16.39-.44.75-.83,1.09-.39.33-.89.5-1.48.5h-5.35l16.89-42.31h7.01l16.89,42.31ZM470.3,437.78l-5.86-15.46c-.48-1.19-.96-2.71-1.45-4.55-.22.92-.45,1.77-.71,2.56-.26.76-.49,1.44-.71,2.03l-5.86,15.43h14.59Z"/>
    </g>
  </g>
  <g>
    <path class="cls-2" d="M298.51,407.99h-95.6c-4.3,0-7.78,3.44-7.78,7.69s3.48,7.69,7.78,7.69h95.6c4.3,0,7.78-3.44,7.78-7.69s-3.48-7.69-7.78-7.69Z"/>
    <path class="cls-2" d="M292.4,432.2c-2.91,4.55-18.19,21.92-26.35,21.92h-30.77c-8.04,0-23.31-17.37-26.23-21.92h83.35Z"/>
    <path class="cls-1" d="M250.67,131.1c-61.32,0-111.09,45.23-111.09,101.07,0,20.4,6.64,39.4,18.07,55.37,14.57,23.66,34.04,43.95,34.04,43.95,8.16,8.39,14.8,23.78,14.8,34.16v9.44h38.12v-32.64l-12.71-12.47v-15.27l-6.64-6.53.12-.12c-4.55,0-8.16-3.61-8.16-8.04s3.61-8.04,8.16-8.04,8.16,3.61,8.16,8.04c0,2.56-1.28,4.9-3.15,6.3l6.41,6.29v15.39l7.81,7.69v-41.15l-18.19-17.84h-8.86l-5.95-5.83c-.7.23-1.4.35-2.21.35-3.73,0-6.76-3.03-6.76-6.76,0-2.68,1.52-5.01,3.85-6.18v-2.21l-2.45-2.45v-1.28h-10.26l-7.46-7.34c-.93.47-2.1.82-3.26.82-3.73,0-6.88-3.03-6.88-6.76s3.15-6.76,6.88-6.76,6.88,3.03,6.88,6.76c0,1.17-.35,2.21-.82,3.15l6.29,6.29h8.63v-1.28l-5.13-5.01h-.23c-1.75,0-3.26-1.52-3.26-3.26s1.52-3.15,3.26-3.15,3.26,1.4,3.26,3.15c0,.23,0,.47-.12.7l6.18,5.95v6.53l2.45,2.33v3.26c3.26.47,5.83,3.38,5.83,6.76,0,1.17-.35,2.33-.93,3.26l4.2,4.08h8.98l16.09,15.97v-8.74l-16.44-16.2v-20.98l-7.58-7.46c-.93.35-1.87.47-2.91.47-4.9,0-8.86-3.96-8.86-8.86s3.96-8.86,8.86-8.86,8.98,3.96,8.98,8.86c0,1.4-.35,2.8-.93,3.96l9.21,9.09v20.98l9.68,9.44v-63.76c-6.18-1.75-10.72-7.34-10.72-13.99,0-8.04,6.53-14.45,14.57-14.45s14.69,6.41,14.69,14.45c0,5.95-3.61,11.07-8.74,13.29v52.69l8.28-8.16v-8.51c-1.98-.58-3.5-2.45-3.5-4.55,0-2.68,2.21-4.9,4.9-4.9s4.9,2.21,4.9,4.9c0,2.1-1.4,3.96-3.38,4.55v9.68l-11.19,11.07v53.51l13.64-13.52v-26.46l5.6-5.6c-1.05-1.4-1.75-3.15-1.75-5.13,0-3.61,2.21-6.76,5.36-8.04v-25.3l9.09-8.98c-1.75-1.98-2.68-4.55-2.68-7.34,0-6.41,5.25-11.66,11.66-11.66s11.77,5.25,11.77,11.66-5.25,11.54-11.77,11.54c-1.4,0-2.91-.23-4.2-.7l-7.93,7.81v22.5c1.86.47,3.5,1.52,4.66,3.03l5.01-4.9v-4.08l6.06-5.95v-.58c0-1.75,1.52-3.26,3.26-3.26s3.26,1.52,3.26,3.26-1.52,3.26-3.26,3.26c-.12,0-.23-.12-.35-.12l-5.01,5.01v1.28h8.63l6.18-6.18c-.47-.93-.7-1.86-.7-3.03,0-4.2,3.5-7.69,7.81-7.69s7.81,3.5,7.81,7.69-3.5,7.69-7.81,7.69c-1.75,0-3.38-.58-4.66-1.52l-6.99,6.88h-11.42l-6.06,5.95c.12.58.23,1.17.23,1.75,0,4.9-4.08,8.86-8.98,8.86-.47,0-.93,0-1.4-.12l.12.12-4.78,4.66v16.9h7.46l3.61-3.5c-.82-.93-1.28-1.98-1.28-3.26,0-2.68,2.21-4.78,4.9-4.78s4.9,2.1,4.9,4.78-2.21,4.78-4.9,4.78c-.7,0-1.4-.12-2.1-.35l-4.31,4.31h-8.28v7.58l-20.4,20.28v20.4h2.56l5.48-5.48c-.82-.82-1.28-1.98-1.28-3.26,0-2.68,2.21-4.78,4.9-4.78s4.9,2.1,4.9,4.78-2.21,4.78-4.9,4.78h-.93l-6.88,6.76h-3.85v27.04h40.57v-9.44c0-10.37,6.64-25.76,14.8-34.16,0,0,19.35-20.28,34.04-43.95,11.42-15.97,18.07-34.97,18.07-55.37,0-55.84-49.78-101.07-111.21-101.07ZM248.46,183.09c-4.78,0-8.74,3.85-8.74,8.63s3.96,8.74,8.74,8.74,8.86-3.96,8.86-8.74-3.96-8.63-8.86-8.63ZM217.68,221.91c-2.21,0-4.08,1.87-4.08,4.08s1.87,3.96,4.08,3.96c2.33,0,4.08-1.75,4.08-3.96s-1.75-4.08-4.08-4.08ZM280.86,260.61c-2.21,0-4.08,1.75-4.08,3.96s1.86,4.08,4.08,4.08,4.08-1.86,4.08-4.08-1.86-3.96-4.08-3.96ZM295.32,208.15c-3.73,0-6.76,3.03-6.76,6.76s3.03,6.76,6.76,6.76,6.88-3.03,6.88-6.76-3.03-6.76-6.88-6.76ZM225.37,295.81c-2.33,0-4.2,1.86-4.2,4.2s1.86,4.2,4.2,4.2,4.2-1.87,4.2-4.2-1.86-4.2-4.2-4.2ZM209.4,260.61c-2.1,0-3.85,1.63-3.85,3.85,0,2.1,1.75,3.85,3.85,3.85,2.21,0,3.96-1.75,3.96-3.85,0-2.21-1.75-3.85-3.96-3.85ZM318.75,239.04c-2.68,0-4.9,2.1-4.9,4.78s2.21,4.9,4.9,4.9,4.9-2.21,4.9-4.9-2.21-4.78-4.9-4.78ZM302.19,242.31c-.7,0-1.28.58-1.28,1.28s.58,1.28,1.28,1.28,1.28-.58,1.28-1.28-.58-1.28-1.28-1.28ZM264.08,234.5c-1.05,0-1.86.93-1.86,1.98s.82,1.87,1.86,1.87c1.17,0,1.98-.82,1.98-1.87s-.82-1.98-1.98-1.98ZM266.06,333.58c-1.63,0-2.91,1.28-2.91,2.91s1.28,2.91,2.91,2.91,2.91-1.28,2.91-2.91-1.28-2.91-2.91-2.91ZM289.49,285.32c-1.63,0-2.91,1.28-2.91,2.91s1.28,2.91,2.91,2.91,2.91-1.28,2.91-2.91-1.28-2.91-2.91-2.91ZM198.68,237.64c-.7,0-1.28.58-1.28,1.28s.58,1.28,1.28,1.28,1.28-.58,1.28-1.28-.58-1.28-1.28-1.28ZM183.06,235.2c-2.1,0-3.85,1.63-3.85,3.85,0,2.1,1.75,3.85,3.85,3.85,2.21,0,3.96-1.75,3.96-3.85,0-2.21-1.75-3.85-3.96-3.85Z"/>
    <path class="cls-2" d="M291.84,383.82h-82.26c-4.3,0-7.78,3.44-7.78,7.69s3.48,7.69,7.78,7.69h82.26c4.3,0,7.78-3.44,7.78-7.69s-3.48-7.69-7.78-7.69Z"/>
  </g>
</svg>