<?xml version="1.0" encoding="UTF-8"?>
<svg id="Camada_2" data-name="Camada 2" xmlns="http://www.w3.org/2000/svg" viewBox="0 0 234.23 340.35">
  <defs>
    <style>
      .cls-1 {
        fill-rule: evenodd;
      }

      .cls-1, .cls-2 {
        fill: #f7f7f7;
      }
    </style>
  </defs>
  <g id="Camada_1-2" data-name="Camada 1">
    <g>
      <path class="cls-2" d="M167.46,291.75h-100.73c-4.53,0-8.2,3.63-8.2,8.1s3.67,8.1,8.2,8.1h100.73c4.53,0,8.2-3.63,8.2-8.1s-3.67-8.1-8.2-8.1Z"/>
      <path class="cls-2" d="M161.02,317.26c-3.07,4.79-19.16,23.09-27.76,23.09h-32.43c-8.47,0-24.56-18.3-27.64-23.09h87.82Z"/>
      <path class="cls-1" d="M117.05,0C52.45,0,0,47.66,0,106.49c0,21.49,7,41.51,19.04,58.34,15.35,24.93,35.86,46.31,35.86,46.31,8.6,8.84,15.6,25.06,15.6,35.99v9.95h40.16v-34.39l-13.39-13.14v-16.09l-7-6.88.12-.12c-4.79,0-8.6-3.81-8.6-8.47s3.81-8.47,8.6-8.47,8.6,3.81,8.6,8.47c0,2.7-1.35,5.16-3.32,6.63l6.76,6.63v16.21l8.23,8.11v-43.36l-19.16-18.79h-9.33l-6.26-6.14c-.74.25-1.47.37-2.33.37-3.93,0-7.12-3.19-7.12-7.12,0-2.82,1.6-5.28,4.05-6.51v-2.33l-2.58-2.58v-1.35h-10.81l-7.86-7.74c-.98.49-2.21.86-3.44.86-3.93,0-7.25-3.19-7.25-7.12s3.32-7.12,7.25-7.12,7.25,3.19,7.25,7.12c0,1.23-.37,2.33-.86,3.32l6.63,6.63h9.09v-1.35l-5.4-5.28h-.25c-1.84,0-3.44-1.6-3.44-3.44s1.6-3.32,3.44-3.32,3.44,1.47,3.44,3.32c0,.25,0,.49-.12.74l6.51,6.26v6.88l2.58,2.46v3.44c3.44.49,6.14,3.56,6.14,7.12,0,1.23-.37,2.46-.98,3.44l4.42,4.3h9.46l16.95,16.83v-9.21l-17.32-17.07v-22.11l-7.98-7.86c-.98.37-1.97.49-3.07.49-5.16,0-9.33-4.18-9.33-9.33s4.18-9.33,9.33-9.33,9.46,4.18,9.46,9.33c0,1.47-.37,2.95-.98,4.18l9.7,9.58v22.11l10.19,9.95v-67.18c-6.51-1.84-11.3-7.74-11.3-14.74,0-8.47,6.88-15.23,15.35-15.23s15.48,6.76,15.48,15.23c0,6.26-3.81,11.67-9.21,14v55.52l8.72-8.6v-8.97c-2.09-.61-3.68-2.58-3.68-4.79,0-2.82,2.33-5.16,5.16-5.16s5.16,2.33,5.16,5.16c0,2.21-1.47,4.18-3.56,4.79v10.19l-11.79,11.67v56.38l14.37-14.25v-27.88l5.9-5.9c-1.11-1.47-1.84-3.32-1.84-5.4,0-3.81,2.33-7.12,5.65-8.47v-26.65l9.58-9.46c-1.84-2.09-2.83-4.79-2.83-7.74,0-6.76,5.53-12.28,12.28-12.28s12.41,5.53,12.41,12.28-5.53,12.16-12.41,12.16c-1.47,0-3.07-.25-4.42-.74l-8.35,8.23v23.71c1.96.49,3.68,1.6,4.91,3.19l5.28-5.16v-4.3l6.39-6.26v-.61c0-1.84,1.6-3.44,3.44-3.44s3.44,1.6,3.44,3.44-1.6,3.44-3.44,3.44c-.12,0-.25-.12-.37-.12l-5.28,5.28v1.35h9.09l6.51-6.51c-.49-.98-.74-1.96-.74-3.19,0-4.42,3.68-8.11,8.23-8.11s8.23,3.68,8.23,8.11-3.68,8.11-8.23,8.11c-1.84,0-3.56-.61-4.91-1.6l-7.37,7.25h-12.04l-6.39,6.26c.12.61.25,1.23.25,1.84,0,5.16-4.3,9.33-9.46,9.33-.49,0-.98,0-1.47-.12l.12.12-5.04,4.91v17.81h7.86l3.81-3.68c-.86-.98-1.35-2.09-1.35-3.44,0-2.82,2.33-5.04,5.16-5.04s5.16,2.21,5.16,5.04-2.33,5.04-5.16,5.04c-.74,0-1.47-.12-2.21-.37l-4.54,4.54h-8.72v7.98l-21.49,21.37v21.49h2.7l5.77-5.77c-.86-.86-1.35-2.09-1.35-3.44,0-2.82,2.33-5.04,5.16-5.04s5.16,2.21,5.16,5.04-2.33,5.04-5.16,5.04h-.98l-7.25,7.12h-4.05v28.5h42.74v-9.95c0-10.93,7-27.14,15.6-35.99,0,0,20.39-21.37,35.87-46.31,12.04-16.83,19.04-36.85,19.04-58.34C234.23,47.66,181.78,0,117.05,0ZM114.72,54.78c-5.04,0-9.21,4.05-9.21,9.09s4.18,9.21,9.21,9.21,9.33-4.18,9.33-9.21-4.18-9.09-9.33-9.09ZM82.29,95.68c-2.33,0-4.3,1.97-4.3,4.3s1.97,4.18,4.3,4.18c2.46,0,4.3-1.84,4.3-4.18s-1.84-4.3-4.3-4.3ZM148.86,136.46c-2.33,0-4.3,1.84-4.3,4.18s1.96,4.3,4.3,4.3,4.3-1.96,4.3-4.3-1.96-4.18-4.3-4.18ZM164.09,81.19c-3.93,0-7.12,3.19-7.12,7.12s3.19,7.12,7.12,7.12,7.25-3.19,7.25-7.12-3.19-7.12-7.25-7.12ZM90.4,173.55c-2.46,0-4.42,1.96-4.42,4.42s1.96,4.42,4.42,4.42,4.42-1.97,4.42-4.42-1.96-4.42-4.42-4.42ZM73.57,136.46c-2.21,0-4.05,1.72-4.05,4.05,0,2.21,1.84,4.05,4.05,4.05,2.33,0,4.18-1.84,4.18-4.05,0-2.33-1.84-4.05-4.18-4.05ZM188.78,113.74c-2.82,0-5.16,2.21-5.16,5.04s2.33,5.16,5.16,5.16,5.16-2.33,5.16-5.16-2.33-5.04-5.16-5.04ZM171.34,117.17c-.74,0-1.35.61-1.35,1.35s.61,1.35,1.35,1.35,1.35-.61,1.35-1.35-.61-1.35-1.35-1.35ZM131.18,108.95c-1.1,0-1.96.98-1.96,2.09s.86,1.97,1.96,1.97c1.23,0,2.09-.86,2.09-1.97s-.86-2.09-2.09-2.09ZM133.26,213.35c-1.72,0-3.07,1.35-3.07,3.07s1.35,3.07,3.07,3.07,3.07-1.35,3.07-3.07-1.35-3.07-3.07-3.07ZM157.95,162.5c-1.72,0-3.07,1.35-3.07,3.07s1.35,3.07,3.07,3.07,3.07-1.35,3.07-3.07-1.35-3.07-3.07-3.07ZM62.27,112.26c-.74,0-1.35.61-1.35,1.35s.61,1.35,1.35,1.35,1.35-.61,1.35-1.35-.61-1.35-1.35-1.35ZM45.81,109.68c-2.21,0-4.05,1.72-4.05,4.05,0,2.21,1.84,4.05,4.05,4.05,2.33,0,4.18-1.84,4.18-4.05,0-2.33-1.84-4.05-4.18-4.05Z"/>
      <path class="cls-2" d="M160.43,266.28h-86.67c-4.53,0-8.2,3.63-8.2,8.1s3.67,8.1,8.2,8.1h86.67c4.53,0,8.2-3.63,8.2-8.1s-3.67-8.1-8.2-8.1Z"/>
    </g>
  </g>
</svg>