<?xml version="1.0" encoding="UTF-8"?>
<svg id="Camada_2" data-name="Camada 2" xmlns="http://www.w3.org/2000/svg" viewBox="0 0 1088.23 221.05">
  <defs>
    <style>
      .cls-1 {
        fill-rule: evenodd;
      }

      .cls-1, .cls-2 {
        fill: #ffffff;
      }
    </style>
  </defs>
  <g id="Camada_1-2" data-name="Camada 1">
    <g>
      <g>
        <g>
          <rect class="cls-2" x="902.67" y="108.74" width="37.69" height="17.35"/>
          <path class="cls-2" d="M992.74,122.96c0,5.64-.72,10.78-2.16,15.4-1.4,4.63-3.54,8.6-6.42,11.93-2.84,3.28-6.42,5.85-10.75,7.7-4.33,1.8-9.42,2.71-15.29,2.71-2.65,0-5.28-.14-7.89-.42-2.56-.28-5.23-.74-8.03-1.39l1.26-13.67c.14-1.2.63-2.17,1.46-2.91.84-.74,2.02-1.11,3.56-1.11.79,0,1.77.14,2.93.42,1.16.23,2.56.35,4.19.35,2.28,0,4.26-.3,5.93-.9,1.72-.65,3.14-1.69,4.26-3.12,1.12-1.48,1.95-3.4,2.51-5.76.56-2.36.84-5.27.84-8.74V58.5h23.59v64.46Z"/>
          <path class="cls-2" d="M1047.33,58.5c7.17,0,13.31.86,18.43,2.57,5.16,1.67,9.4,3.98,12.7,6.94,3.35,2.96,5.82,6.45,7.4,10.48,1.58,4.02,2.37,8.37,2.37,13.04,0,5.04-.81,9.67-2.44,13.88-1.63,4.21-4.12,7.82-7.47,10.82-3.35,3.01-7.61,5.37-12.77,7.08-5.12,1.67-11.19,2.5-18.22,2.5h-12.28v33.79h-23.59V58.5h35.88ZM1047.33,108.11c6.14,0,10.56-1.46,13.26-4.37,2.7-2.91,4.05-6.99,4.05-12.21,0-2.31-.35-4.42-1.05-6.31-.7-1.9-1.77-3.52-3.21-4.86-1.4-1.39-3.19-2.45-5.37-3.19-2.14-.74-4.7-1.11-7.68-1.11h-12.28v32.06h12.28Z"/>
          <path class="cls-2" d="M233.58,16.22c0,8.94-7.29,16.19-16.29,16.19s-16.29-7.25-16.29-16.19S208.29.03,217.29.03s16.29,7.25,16.29,16.19Z"/>
          <path class="cls-2" d="M203.18,45.41v114.21h27.69V45.66c-4.13,1.89-8.73,2.94-13.58,2.94s-9.84-1.15-14.11-3.19Z"/>
          <path class="cls-2" d="M340.9,159.62V58.53h-20.8v53.5c0,1.62.05,3.35.14,5.2.09,1.8.26,3.68.49,5.62l-48.37-60.71c-.65-.79-1.23-1.41-1.75-1.87-.51-.46-1.05-.81-1.61-1.04-.56-.28-1.19-.46-1.88-.55-.7-.09-1.56-.14-2.58-.14h-12.42v101.1h20.8v-54.19c0-1.48-.05-3.05-.14-4.72-.05-1.71-.16-3.47-.35-5.27l47.95,60.3c1.21,1.43,2.42,2.45,3.63,3.05,1.26.56,2.79.83,4.61.83h12.29Z"/>
          <path class="cls-1" d="M436.29,109.04c0-5-.65-9.48-1.95-13.46-1.3-4.03-3.19-7.42-5.65-10.2-2.42-2.78-5.4-4.9-8.94-6.38-3.54-1.48-7.56-2.22-12.07-2.22s-8.63.74-12.22,2.22c-3.54,1.48-6.54,3.61-9,6.38-2.42,2.78-4.28,6.18-5.58,10.2-1.3,3.98-1.95,8.47-1.95,13.46s.65,9.58,1.95,13.6c1.3,3.98,3.16,7.36,5.58,10.13,2.47,2.78,5.47,4.9,9,6.38,3.58,1.43,7.65,2.15,12.22,2.15s8.54-.72,12.07-2.15c3.54-1.48,6.52-3.61,8.94-6.38,2.47-2.77,4.35-6.15,5.65-10.13,1.3-4.02,1.95-8.56,1.95-13.6ZM460.44,109.04c0,7.31-1.28,14.11-3.84,20.4-2.51,6.29-6.07,11.77-10.68,16.45-4.61,4.63-10.17,8.26-16.68,10.89-6.47,2.64-13.66,3.95-21.57,3.95s-15.13-1.32-21.64-3.95c-6.51-2.64-12.1-6.27-16.75-10.89-4.61-4.67-8.19-10.15-10.75-16.45-2.51-6.29-3.77-13.09-3.77-20.4s1.26-14.11,3.77-20.4c2.56-6.29,6.14-11.75,10.75-16.38,4.65-4.62,10.24-8.26,16.75-10.89,6.51-2.64,13.73-3.95,21.64-3.95s15.1,1.34,21.57,4.02c6.51,2.64,12.08,6.27,16.68,10.89,4.61,4.63,8.17,10.08,10.68,16.37,2.56,6.29,3.84,13.07,3.84,20.33Z"/>
          <path class="cls-2" d="M521.11,159.62l40.76-101.1h-19.13c-1.95,0-3.61.53-4.96,1.6-1.3,1.02-2.21,2.17-2.72,3.47l-19.54,54.12c-.93,2.36-1.81,4.95-2.65,7.77-.79,2.78-1.51,5.69-2.16,8.74-.79-3.05-1.63-5.97-2.51-8.74-.88-2.82-1.79-5.41-2.72-7.77l-19.68-54.12c-.65-1.48-1.61-2.68-2.86-3.61-1.26-.97-2.91-1.46-4.96-1.46h-18.99l40.76,101.1h21.36Z"/>
          <path class="cls-1" d="M615.18,120.97l-9.42-27.69c-.7-1.76-1.44-3.82-2.23-6.18-.79-2.41-1.58-5-2.37-7.77-.7,2.82-1.44,5.44-2.23,7.84-.79,2.4-1.53,4.49-2.23,6.24l-9.35,27.55h27.85ZM652.67,159.62h-18.29c-2.05,0-3.7-.46-4.96-1.39-1.26-.97-2.21-2.2-2.86-3.68l-6-17.62h-38.67l-6,17.62c-.51,1.3-1.44,2.48-2.79,3.54-1.3,1.02-2.93,1.53-4.89,1.53h-18.43l39.37-101.1h24.15l39.37,101.1Z"/>
          <polygon class="cls-2" points="695.19 77.12 723.81 77.12 723.81 58.53 642.98 58.53 642.98 77.12 671.6 77.12 671.6 159.62 695.19 159.62 695.19 77.12"/>
          <polygon class="cls-2" points="759.53 76.57 759.53 100.16 791.5 100.16 791.5 117.51 759.53 117.51 759.53 141.58 801.27 141.58 801.27 159.62 735.8 159.62 735.8 58.53 801.27 58.53 801.27 76.57 759.53 76.57"/>
          <path class="cls-2" d="M884,133.81c-.56-.23-1.12-.35-1.68-.35-.7,0-1.37.16-2.02.49-.65.28-1.26.65-1.81,1.11-1.4,1.25-2.77,2.29-4.12,3.12-1.35.79-2.79,1.43-4.33,1.94-1.54.46-3.19.81-4.96,1.04-1.77.18-3.72.28-5.86.28-3.72,0-7.21-.72-10.47-2.15-3.26-1.43-6.12-3.52-8.58-6.25-2.42-2.78-4.35-6.18-5.79-10.2-1.4-4.02-2.09-8.63-2.09-13.81s.63-9.69,1.88-13.67c1.3-4.02,3.12-7.4,5.45-10.13,2.37-2.78,5.16-4.88,8.38-6.31,3.26-1.43,6.84-2.15,10.75-2.15,2.47,0,4.61.19,6.42.56,1.86.37,3.47.83,4.82,1.39,1.39.51,2.58,1.09,3.56,1.73,1.02.6,1.95,1.18,2.79,1.73.84.51,1.63.95,2.37,1.32.74.37,1.53.56,2.37.56,1.26,0,2.23-.25,2.93-.76.7-.56,1.3-1.16,1.81-1.8l7.96-10.62c-1.91-1.94-4.09-3.75-6.56-5.41-2.47-1.67-5.17-3.08-8.1-4.23-2.93-1.2-6.1-2.13-9.49-2.78-3.35-.69-6.93-1.04-10.75-1.04-7.49,0-14.36,1.27-20.59,3.82-6.24,2.54-11.59,6.11-16.05,10.69-4.47,4.58-7.93,10.04-10.4,16.38-2.47,6.29-3.7,13.21-3.7,20.75s1.14,14.27,3.42,20.61c2.28,6.29,5.54,11.75,9.77,16.38,4.28,4.58,9.47,8.19,15.57,10.82,6.14,2.59,13.07,3.89,20.8,3.89,8.42,0,15.71-1.34,21.85-4.02,6.19-2.73,11.33-6.75,15.43-12.07l-9.35-9.78c-.51-.51-1.05-.86-1.61-1.04Z"/>
        </g>
        <g>
          <path class="cls-2" d="M1020.01,196.67c2.26-2.09,4.96-3.14,8.09-3.14,1.15,0,2.17.19,3.06.56.9.36,1.66.88,2.26,1.56.62.68,1.08,1.48,1.39,2.42.33.92.49,1.95.49,3.08v12.63h-1.88c-.41,0-.71-.06-.92-.17-.21-.13-.39-.38-.53-.76l-.41-1.62c-.51.45-1.02.86-1.51,1.23-.5.35-1.01.65-1.55.9-.52.25-1.09.43-1.71.55-.6.13-1.27.2-2,.2-.81,0-1.57-.11-2.28-.33-.69-.22-1.3-.55-1.8-.99-.51-.45-.92-1.01-1.22-1.68-.29-.66-.43-1.44-.43-2.34,0-.77.2-1.51.61-2.24.42-.73,1.1-1.38,2.04-1.95.95-.58,2.2-1.07,3.75-1.44,1.56-.38,3.47-.59,5.75-.64v-1.33c0-1.43-.31-2.49-.92-3.2-.62-.7-1.52-1.05-2.71-1.05-.81,0-1.49.1-2.04.31-.55.19-1.03.41-1.43.64-.41.23-.77.45-1.08.66-.31.19-.65.29-1,.29-.29,0-.54-.07-.74-.21-.2-.16-.36-.35-.49-.57l-.76-1.36ZM1031.19,205.09c-1.51.05-2.77.17-3.81.37-1.03.18-1.87.42-2.51.72-.64.29-1.11.63-1.39,1.03-.27.4-.41.85-.41,1.33s.07.87.22,1.21c.16.33.37.6.63.82.27.21.59.36.94.47.37.09.77.14,1.2.14,1.1,0,2.04-.2,2.83-.6.8-.42,1.57-1.01,2.32-1.79v-3.68ZM1006.73,210.8c1.8,0,3.15-.6,4.02-1.79.89-1.21,1.33-2.93,1.33-5.17s-.45-3.96-1.33-5.17c-.88-1.22-2.22-1.83-4.02-1.83s-3.19.61-4.08,1.83c-.89,1.21-1.33,2.93-1.33,5.17s.44,3.96,1.33,5.17c.89,1.2,2.25,1.79,4.08,1.79ZM1006.73,193.59c1.48,0,2.81.24,4,.72,1.2.48,2.22,1.16,3.06,2.05.85.88,1.5,1.95,1.96,3.22.46,1.26.69,2.68.69,4.25s-.23,2.99-.69,4.25c-.46,1.26-1.11,2.34-1.96,3.24-.84.88-1.86,1.57-3.06,2.05-1.19.48-2.53.72-4,.72s-2.84-.24-4.04-.72c-1.19-.48-2.21-1.16-3.06-2.05-.85-.9-1.5-1.98-1.96-3.24-.46-1.26-.69-2.68-.69-4.25s.23-2.99.69-4.25c.46-1.26,1.11-2.33,1.96-3.22.85-.89,1.87-1.57,3.06-2.05,1.2-.48,2.55-.72,4.04-.72ZM992.89,197.5c-.1.18-.22.31-.35.39-.13.08-.29.12-.49.12-.22,0-.46-.06-.73-.19-.26-.14-.57-.3-.92-.47-.35-.17-.77-.32-1.25-.45-.47-.14-1.03-.22-1.67-.22-.52,0-1,.07-1.43.2-.42.12-.78.29-1.08.53-.29.22-.51.49-.67.8-.16.3-.24.62-.24.97,0,.47.14.86.43,1.17.29.31.67.58,1.14.82.47.22,1.01.42,1.61.6.6.18,1.22.38,1.85.58.63.21,1.24.45,1.84.72.6.27,1.14.61,1.61,1.01.47.39.85.87,1.14,1.44.29.56.43,1.24.43,2.05,0,.94-.17,1.8-.51,2.59-.34.79-.84,1.48-1.49,2.07-.65.58-1.47,1.04-2.45,1.36-.97.32-2.08.49-3.34.49-.69,0-1.37-.07-2.02-.2-.64-.12-1.26-.28-1.84-.49-.58-.22-1.12-.48-1.63-.78-.5-.3-.94-.62-1.33-.97l.98-1.6c.12-.2.26-.34.43-.45.18-.12.41-.17.67-.17.28,0,.54.09.81.27.27.17.59.36.94.57.37.21.81.4,1.31.58.51.17,1.14.25,1.9.25.63,0,1.17-.07,1.63-.21.46-.16.84-.36,1.14-.62.3-.26.52-.55.67-.88.14-.34.22-.7.22-1.07,0-.51-.14-.92-.43-1.25-.29-.33-.67-.61-1.16-.84-.47-.23-1.01-.44-1.63-.62-.6-.18-1.22-.38-1.84-.58-.63-.21-1.25-.45-1.87-.72-.6-.27-1.14-.62-1.63-1.03-.47-.43-.85-.94-1.14-1.54-.29-.61-.43-1.35-.43-2.22,0-.79.16-1.55.47-2.26.33-.72.8-1.35,1.41-1.89.63-.55,1.39-.98,2.3-1.29.92-.32,1.97-.49,3.16-.49,1.35,0,2.57.22,3.67.64,1.1.43,2.02,1.01,2.77,1.75l-.94,1.52ZM975.76,197.5c-.1.18-.22.31-.35.39-.13.08-.29.12-.49.12-.22,0-.46-.06-.73-.19-.26-.14-.57-.3-.92-.47-.35-.17-.77-.32-1.26-.45-.47-.14-1.03-.22-1.67-.22-.52,0-1,.07-1.43.2-.42.12-.78.29-1.08.53-.29.22-.51.49-.67.8-.16.3-.24.62-.24.97,0,.47.14.86.43,1.17.29.31.67.58,1.14.82.47.22,1.01.42,1.61.6.6.18,1.22.38,1.84.58.63.21,1.24.45,1.84.72.6.27,1.14.61,1.61,1.01.47.39.85.87,1.14,1.44.29.56.43,1.24.43,2.05,0,.94-.17,1.8-.51,2.59-.34.79-.84,1.48-1.49,2.07-.65.58-1.47,1.04-2.45,1.36-.97.32-2.08.49-3.34.49-.69,0-1.37-.07-2.02-.2-.64-.12-1.26-.28-1.84-.49-.58-.22-1.12-.48-1.63-.78-.5-.3-.94-.62-1.33-.97l.98-1.6c.12-.2.26-.34.43-.45.18-.12.4-.17.67-.17s.54.09.8.27c.27.17.59.36.94.57.37.21.81.4,1.32.58.51.17,1.14.25,1.9.25.63,0,1.17-.07,1.63-.21.46-.16.84-.36,1.14-.62.3-.26.52-.55.67-.88.14-.34.22-.7.22-1.07,0-.51-.14-.92-.43-1.25-.29-.33-.67-.61-1.16-.84-.47-.23-1.01-.44-1.63-.62-.6-.18-1.22-.38-1.84-.58-.63-.21-1.25-.45-1.87-.72-.6-.27-1.14-.62-1.63-1.03-.47-.43-.85-.94-1.14-1.54-.29-.61-.43-1.35-.43-2.22,0-.79.16-1.55.47-2.26.33-.72.8-1.35,1.41-1.89.63-.55,1.39-.98,2.3-1.29.92-.32,1.97-.49,3.16-.49,1.35,0,2.57.22,3.67.64,1.1.43,2.02,1.01,2.77,1.75l-.94,1.52ZM946.01,204.17c.05,1.13.23,2.11.53,2.94.3.82.7,1.5,1.2,2.05.51.54,1.11.95,1.81,1.23.71.26,1.49.39,2.36.39s1.54-.09,2.14-.27c.6-.19,1.12-.4,1.57-.62.44-.23.82-.44,1.14-.62.31-.19.6-.29.86-.29.34,0,.6.13.79.39l1.2,1.54c-.5.58-1.06,1.08-1.69,1.48-.63.4-1.3.73-2,.99-.71.25-1.43.42-2.18.53-.75.12-1.47.18-2.18.18-1.39,0-2.68-.23-3.87-.68-1.18-.47-2.2-1.15-3.08-2.05-.86-.9-1.54-2.01-2.04-3.33-.48-1.33-.73-2.85-.73-4.58,0-1.38.22-2.66.65-3.86.44-1.2,1.07-2.24,1.88-3.12.82-.88,1.82-1.58,2.98-2.09,1.18-.52,2.51-.78,3.98-.78,1.23,0,2.37.2,3.42.6,1.05.39,1.95.97,2.71,1.73.76.77,1.35,1.71,1.77,2.83.43,1.1.65,2.37.65,3.78,0,.65-.07,1.09-.22,1.31-.14.22-.41.33-.79.33h-12.85ZM956.08,201.6c0-.7-.11-1.35-.31-1.95-.2-.61-.49-1.14-.88-1.58-.39-.45-.88-.81-1.47-1.05-.58-.26-1.24-.39-2-.39-1.53,0-2.74.44-3.61,1.31-.88.87-1.43,2.09-1.67,3.66h9.95ZM929.57,185.71c1.85,0,3.44.21,4.79.64,1.36.43,2.48,1.03,3.36,1.81.89.77,1.55,1.69,1.98,2.79.43,1.08.65,2.27.65,3.59s-.23,2.57-.69,3.68c-.46,1.1-1.14,2.06-2.04,2.86-.9.79-2.03,1.42-3.38,1.87-1.33.44-2.89.66-4.67.66h-4.2v10.16h-4.59v-28.07h8.79ZM929.57,200.02c1.02,0,1.92-.13,2.69-.39.79-.26,1.43-.62,1.94-1.09.52-.48.92-1.06,1.18-1.74.26-.68.39-1.43.39-2.26s-.13-1.55-.39-2.2c-.25-.65-.63-1.2-1.14-1.66-.51-.45-1.16-.8-1.94-1.03-.77-.25-1.68-.37-2.73-.37h-4.2v10.74h4.2ZM896.45,210.8c1.8,0,3.15-.6,4.02-1.79.89-1.21,1.33-2.93,1.33-5.17s-.45-3.96-1.33-5.17c-.88-1.22-2.22-1.83-4.02-1.83s-3.19.61-4.08,1.83c-.89,1.21-1.33,2.93-1.33,5.17s.44,3.96,1.33,5.17c.89,1.2,2.25,1.79,4.08,1.79ZM896.45,193.59c1.48,0,2.81.24,4,.72,1.2.48,2.22,1.16,3.06,2.05.85.88,1.5,1.95,1.96,3.22.46,1.26.69,2.68.69,4.25s-.23,2.99-.69,4.25c-.46,1.26-1.11,2.34-1.96,3.24-.84.88-1.86,1.57-3.06,2.05-1.19.48-2.53.72-4,.72s-2.84-.24-4.04-.72c-1.19-.48-2.21-1.16-3.06-2.05-.85-.9-1.5-1.98-1.96-3.24-.46-1.26-.69-2.68-.69-4.25s.23-2.99.69-4.25c.46-1.26,1.11-2.33,1.96-3.22.85-.89,1.87-1.57,3.06-2.05,1.2-.48,2.55-.72,4.04-.72ZM877.33,187.58c.42,0,.74-.12.98-.35.24-.25.36-.65.37-1.21h2.57c0,.68-.09,1.29-.27,1.85-.18.55-.44,1.02-.79,1.42-.33.39-.73.69-1.2.92-.46.21-.96.31-1.51.31-.46,0-.89-.08-1.3-.25-.41-.18-.78-.38-1.14-.58-.35-.21-.69-.4-1-.56-.31-.18-.61-.27-.88-.27-.42,0-.75.13-.98.39-.24.25-.35.65-.35,1.21h-2.61c0-.68.09-1.29.28-1.85.2-.56.46-1.03.78-1.42.34-.4.74-.71,1.2-.94.47-.22.98-.33,1.53-.33.47,0,.91.09,1.31.27.41.17.79.36,1.14.57.35.21.68.4.98.58.32.17.61.25.88.25ZM867.56,196.67c2.26-2.09,4.96-3.14,8.09-3.14,1.15,0,2.17.19,3.06.56.9.36,1.65.88,2.26,1.56.62.68,1.08,1.48,1.39,2.42.33.92.49,1.95.49,3.08v12.63h-1.88c-.41,0-.71-.06-.92-.17-.21-.13-.39-.38-.53-.76l-.41-1.62c-.51.45-1.02.86-1.51,1.23-.5.35-1.01.65-1.55.9-.52.25-1.09.43-1.71.55-.6.13-1.27.2-2,.2-.81,0-1.57-.11-2.28-.33-.69-.22-1.3-.55-1.81-.99-.51-.45-.92-1.01-1.22-1.68-.29-.66-.43-1.44-.43-2.34,0-.77.2-1.51.61-2.24.42-.73,1.1-1.38,2.04-1.95.95-.58,2.2-1.07,3.75-1.44,1.56-.38,3.47-.59,5.75-.64v-1.33c0-1.43-.31-2.49-.92-3.2-.61-.7-1.52-1.05-2.71-1.05-.81,0-1.49.1-2.04.31-.55.19-1.03.41-1.43.64-.41.23-.77.45-1.08.66-.31.19-.65.29-1,.29-.29,0-.54-.07-.75-.21-.2-.16-.36-.35-.49-.57l-.77-1.36ZM878.75,205.09c-1.5.05-2.77.17-3.81.37-1.03.18-1.87.42-2.51.72-.64.29-1.1.63-1.39,1.03-.28.4-.41.85-.41,1.33s.07.87.22,1.21c.16.33.37.6.63.82.28.21.59.36.94.47.37.09.76.14,1.2.14,1.1,0,2.04-.2,2.83-.6.8-.42,1.57-1.01,2.32-1.79v-3.68ZM854.28,210.8c1.8,0,3.15-.6,4.02-1.79.89-1.21,1.33-2.93,1.33-5.17s-.44-3.96-1.33-5.17c-.88-1.22-2.22-1.83-4.02-1.83s-3.19.61-4.08,1.83c-.89,1.21-1.33,2.93-1.33,5.17s.44,3.96,1.33,5.17c.89,1.2,2.25,1.79,4.08,1.79ZM854.28,193.59c1.48,0,2.81.24,4,.72,1.2.48,2.22,1.16,3.06,2.05.85.88,1.51,1.95,1.96,3.22.46,1.26.69,2.68.69,4.25s-.23,2.99-.69,4.25c-.46,1.26-1.11,2.34-1.96,3.24-.84.88-1.86,1.57-3.06,2.05-1.19.48-2.53.72-4,.72s-2.84-.24-4.04-.72c-1.19-.48-2.21-1.16-3.06-2.05-.85-.9-1.5-1.98-1.96-3.24-.46-1.26-.69-2.68-.69-4.25s.23-2.99.69-4.25c.46-1.26,1.11-2.33,1.96-3.22.85-.89,1.87-1.57,3.06-2.05,1.2-.48,2.55-.72,4.04-.72ZM840.63,203.92c0,1.57-.2,2.99-.59,4.25-.38,1.25-.96,2.31-1.73,3.2-.76.87-1.71,1.55-2.85,2.03-1.13.47-2.43.7-3.93.7-.68,0-1.35-.05-2.02-.14-.67-.08-1.36-.21-2.08-.39l.24-2.73c.04-.26.14-.47.29-.63.17-.16.41-.23.73-.23.24,0,.54.05.9.16.38.09.87.14,1.47.14.8,0,1.51-.12,2.12-.35.63-.24,1.15-.6,1.57-1.09.43-.51.75-1.15.96-1.93.22-.79.33-1.75.33-2.86v-18.32h4.57v18.21ZM803.15,204.17c.05,1.13.23,2.11.53,2.94.3.82.7,1.5,1.2,2.05.51.54,1.11.95,1.81,1.23.71.26,1.49.39,2.36.39s1.54-.09,2.14-.27c.6-.19,1.12-.4,1.57-.62.44-.23.82-.44,1.14-.62.31-.19.6-.29.86-.29.34,0,.6.13.79.39l1.2,1.54c-.5.58-1.06,1.08-1.69,1.48-.63.4-1.3.73-2,.99-.71.25-1.43.42-2.18.53-.75.12-1.47.18-2.18.18-1.39,0-2.67-.23-3.87-.68-1.18-.47-2.2-1.15-3.08-2.05-.86-.9-1.54-2.01-2.04-3.33-.48-1.33-.72-2.85-.72-4.58,0-1.38.22-2.66.65-3.86.44-1.2,1.07-2.24,1.88-3.12.82-.88,1.82-1.58,2.98-2.09,1.18-.52,2.51-.78,3.98-.78,1.23,0,2.37.2,3.41.6,1.05.39,1.95.97,2.71,1.73.76.77,1.35,1.71,1.77,2.83.43,1.1.65,2.37.65,3.78,0,.65-.07,1.09-.22,1.31-.14.22-.41.33-.79.33h-12.85ZM813.22,201.6c0-.7-.11-1.35-.31-1.95-.2-.61-.49-1.14-.88-1.58-.39-.45-.88-.81-1.47-1.05-.58-.26-1.24-.39-2-.39-1.53,0-2.74.44-3.61,1.31-.88.87-1.43,2.09-1.67,3.66h9.95ZM794.93,184.93v28.85h-2.55c-.56,0-.92-.27-1.08-.8l-.37-2.16c-.84.97-1.79,1.76-2.87,2.36-1.06.6-2.3.9-3.71.9-1.13,0-2.15-.22-3.06-.66-.92-.45-1.7-1.11-2.36-1.97-.65-.86-1.17-1.92-1.53-3.18-.35-1.27-.53-2.73-.53-4.37,0-1.48.2-2.85.59-4.11.41-1.26.98-2.35,1.73-3.27.75-.94,1.65-1.66,2.71-2.18,1.07-.53,2.27-.8,3.59-.8,1.18,0,2.18.19,3,.56.83.36,1.56.88,2.22,1.54v-10.7h4.22ZM790.71,198.79c-.59-.75-1.24-1.28-1.94-1.58-.71-.3-1.47-.45-2.3-.45-1.65,0-2.94.6-3.87,1.81-.93,1.19-1.39,2.97-1.39,5.32,0,1.22.1,2.27.31,3.14.21.86.51,1.56.9,2.11.39.54.87.94,1.43,1.19.56.25,1.2.37,1.9.37,1.07,0,2-.23,2.77-.68.79-.47,1.51-1.12,2.18-1.97v-9.26Z"/>
          <path class="cls-2" d="M752,196.86c2.26-2.09,4.96-3.14,8.09-3.14,1.15,0,2.17.19,3.06.56.9.36,1.65.89,2.26,1.56.62.68,1.08,1.48,1.39,2.42.33.92.49,1.95.49,3.08v12.63h-1.88c-.41,0-.71-.06-.92-.17-.21-.13-.39-.38-.53-.76l-.41-1.62c-.51.45-1.01.86-1.51,1.23-.5.35-1.01.65-1.55.9-.52.25-1.09.43-1.71.55-.6.13-1.27.2-2,.2-.81,0-1.57-.11-2.28-.33-.69-.22-1.3-.55-1.8-.99-.51-.45-.92-1.01-1.22-1.68-.29-.66-.43-1.44-.43-2.34,0-.77.2-1.51.61-2.24.42-.73,1.1-1.38,2.04-1.95.96-.58,2.2-1.07,3.75-1.44,1.56-.38,3.47-.59,5.75-.64v-1.33c0-1.43-.31-2.49-.92-3.2-.62-.7-1.52-1.05-2.71-1.05-.81,0-1.49.1-2.04.31-.55.19-1.03.41-1.43.64-.41.23-.77.46-1.08.66-.32.19-.65.29-1,.29-.29,0-.54-.07-.74-.21-.2-.16-.36-.34-.49-.57l-.76-1.36ZM763.19,205.28c-1.51.05-2.77.17-3.81.37-1.03.18-1.87.42-2.51.72-.64.29-1.11.63-1.39,1.03-.27.4-.41.85-.41,1.33s.07.87.22,1.21c.16.32.37.6.63.82.27.21.59.36.94.47.37.09.77.14,1.2.14,1.1,0,2.04-.2,2.83-.6.8-.42,1.57-1.01,2.32-1.79v-3.68ZM747.78,197.99c-.13.17-.25.3-.37.39-.12.09-.29.14-.51.14s-.46-.08-.71-.23c-.24-.16-.52-.32-.86-.51-.33-.2-.73-.37-1.2-.53-.47-.16-1.06-.23-1.77-.23-.92,0-1.72.16-2.41.49-.68.33-1.26.79-1.73,1.4-.46.6-.8,1.33-1.04,2.2-.22.86-.33,1.83-.33,2.9s.12,2.11.37,2.98c.25.87.6,1.6,1.06,2.2.47.6,1.03,1.05,1.69,1.36.67.31,1.41.47,2.24.47s1.47-.1,1.98-.29c.51-.19.94-.41,1.28-.64.34-.23.63-.45.86-.64.25-.19.51-.29.78-.29.34,0,.6.13.79.39l1.2,1.54c-.48.59-1.02,1.08-1.61,1.48-.59.4-1.21.73-1.86.99-.65.25-1.33.42-2.04.53-.71.12-1.42.18-2.14.18-1.24,0-2.41-.23-3.49-.68-1.07-.47-2.01-1.14-2.83-2.01-.8-.88-1.43-1.96-1.9-3.22-.46-1.27-.69-2.72-.69-4.35,0-1.47.21-2.83.63-4.07.42-1.26,1.03-2.34,1.83-3.26.81-.91,1.81-1.62,3-2.12,1.19-.52,2.56-.78,4.12-.78,1.45,0,2.73.23,3.83.7,1.11.47,2.1,1.13,2.96,1.99l-1.12,1.52ZM729.04,188.09c0,.38-.08.73-.24,1.07-.14.34-.35.64-.61.9-.26.25-.57.45-.92.61-.34.14-.71.21-1.1.21s-.74-.07-1.08-.21c-.33-.16-.62-.36-.86-.61-.25-.26-.45-.56-.61-.9-.15-.34-.22-.69-.22-1.07s.07-.76.22-1.09c.16-.34.36-.63.61-.88.25-.26.54-.46.86-.6.34-.16.7-.23,1.08-.23s.76.08,1.1.23c.35.14.66.34.92.6.26.25.47.54.61.88.16.34.24.7.24,1.09ZM728.33,194.09v19.88h-4.22v-19.88h4.22ZM720.6,194.81v1.56c0,.52-.31.84-.94.95l-2,.33c.34.75.51,1.59.51,2.51,0,.98-.2,1.86-.59,2.65-.38.79-.91,1.47-1.59,2.03-.68.56-1.49.99-2.43,1.29-.94.3-1.96.45-3.06.45-.42,0-.83-.02-1.23-.06-.39-.05-.78-.12-1.16-.19-.38.22-.66.45-.84.7-.18.25-.27.5-.27.76,0,.43.19.75.57.96.38.21.88.36,1.49.45.63.09,1.34.15,2.14.18.8.03,1.61.07,2.43.14.82.06,1.64.17,2.43.33.8.14,1.5.39,2.12.74.63.34,1.13.8,1.51,1.39.38.58.57,1.35.57,2.28,0,.86-.22,1.69-.65,2.51-.43.82-1.06,1.55-1.88,2.18-.81.64-1.81,1.14-2.98,1.52-1.18.39-2.52.58-4.02.58s-2.79-.14-3.91-.43c-1.1-.29-2.02-.68-2.77-1.17-.73-.48-1.28-1.04-1.65-1.68-.35-.64-.53-1.3-.53-1.99,0-.94.29-1.74.88-2.4.6-.66,1.41-1.18,2.43-1.56-.55-.26-1-.62-1.33-1.07-.33-.45-.49-1.05-.49-1.79,0-.58.22-1.19.65-1.83.43-.64,1.08-1.18,1.94-1.62-1-.55-1.78-1.27-2.36-2.16-.58-.91-.86-1.97-.86-3.18,0-.99.19-1.88.57-2.67.39-.79.94-1.47,1.63-2.03.69-.56,1.51-.99,2.45-1.29.95-.3,1.99-.45,3.12-.45,1.73,0,3.23.36,4.51,1.07h5.59ZM716.36,214.95c0-.44-.13-.79-.39-1.05-.25-.27-.59-.48-1.02-.62-.43-.16-.93-.27-1.51-.33-.58-.08-1.19-.13-1.85-.15-.64-.04-1.3-.07-1.98-.1-.67-.04-1.31-.1-1.94-.19-.63.33-1.14.71-1.55,1.17-.39.46-.59.98-.59,1.58,0,.39.1.76.3,1.09.21.34.52.63.94.88.43.25.97.44,1.63.58.67.14,1.47.21,2.39.21,1.86,0,3.25-.29,4.18-.86.93-.57,1.39-1.31,1.39-2.2ZM710.49,203.85c1.31,0,2.29-.33,2.95-.99.65-.66.98-1.53.98-2.59s-.33-1.95-.98-2.59c-.65-.64-1.64-.95-2.95-.95s-2.28.32-2.94.95c-.65.64-.98,1.5-.98,2.59,0,.52.09,1,.26,1.44.17.44.42.82.75,1.15.33.31.73.56,1.22.74.5.17,1.07.25,1.71.25ZM696.03,185.59l-4.73,5.05c-.21.23-.42.4-.63.49-.2.09-.46.14-.79.14h-2.51l2.85-4.72c.18-.32.39-.56.63-.72.25-.16.61-.24,1.08-.24h4.1ZM689.73,210.99c1.8,0,3.15-.6,4.02-1.79.89-1.21,1.33-2.93,1.33-5.17s-.45-3.96-1.33-5.17c-.88-1.22-2.22-1.83-4.02-1.83s-3.19.61-4.08,1.83c-.89,1.21-1.33,2.93-1.33,5.17s.44,3.96,1.33,5.17c.89,1.2,2.25,1.79,4.08,1.79ZM689.73,193.78c1.48,0,2.81.24,4,.72,1.2.48,2.22,1.16,3.06,2.05.85.88,1.5,1.96,1.96,3.22.46,1.26.69,2.68.69,4.25s-.23,2.99-.69,4.25c-.46,1.26-1.11,2.34-1.96,3.24-.84.88-1.86,1.57-3.06,2.05-1.19.48-2.53.72-4,.72s-2.84-.24-4.04-.72c-1.19-.48-2.21-1.16-3.06-2.05-.85-.9-1.5-1.97-1.96-3.24-.46-1.26-.69-2.68-.69-4.25s.23-2.99.69-4.25c.46-1.26,1.11-2.33,1.96-3.22.85-.88,1.87-1.57,3.06-2.05,1.2-.48,2.55-.72,4.04-.72ZM675.87,185.12v28.85h-4.22v-28.85h4.22ZM657.8,210.99c1.81,0,3.15-.6,4.02-1.79.89-1.21,1.33-2.93,1.33-5.17s-.44-3.96-1.33-5.17c-.88-1.22-2.22-1.83-4.02-1.83s-3.19.61-4.08,1.83c-.89,1.21-1.33,2.93-1.33,5.17s.44,3.96,1.33,5.17c.89,1.2,2.25,1.79,4.08,1.79ZM657.8,193.78c1.48,0,2.81.24,4,.72,1.2.48,2.22,1.16,3.06,2.05.85.88,1.51,1.96,1.96,3.22.46,1.26.69,2.68.69,4.25s-.23,2.99-.69,4.25c-.46,1.26-1.11,2.34-1.96,3.24-.84.88-1.86,1.57-3.06,2.05-1.19.48-2.52.72-4,.72s-2.84-.24-4.04-.72c-1.19-.48-2.21-1.16-3.06-2.05-.85-.9-1.51-1.97-1.96-3.24-.46-1.26-.69-2.68-.69-4.25s.23-2.99.69-4.25c.46-1.26,1.11-2.33,1.96-3.22.85-.88,1.87-1.57,3.06-2.05,1.2-.48,2.55-.72,4.04-.72ZM631.09,196.72c.43-.44.88-.84,1.33-1.19.47-.36.97-.68,1.49-.94.52-.26,1.08-.46,1.67-.6.59-.14,1.23-.22,1.92-.22,1.1,0,2.06.18,2.89.55.84.36,1.54.88,2.1,1.54.58.66,1.01,1.46,1.3,2.4.29.92.43,1.94.43,3.06v12.65h-4.2v-12.65c0-1.34-.31-2.38-.94-3.12-.61-.74-1.56-1.11-2.83-1.11-.94,0-1.82.21-2.63.64-.8.43-1.55,1.01-2.26,1.75v14.48h-4.22v-19.88h2.55c.58,0,.94.27,1.1.8l.29,1.83ZM622.44,197.99c-.13.17-.25.3-.37.39-.12.09-.29.14-.51.14s-.46-.08-.71-.23c-.24-.16-.52-.32-.86-.51-.33-.2-.73-.37-1.2-.53-.47-.16-1.06-.23-1.77-.23-.92,0-1.72.16-2.41.49-.68.33-1.26.79-1.73,1.4-.46.6-.81,1.33-1.04,2.2-.22.86-.33,1.83-.33,2.9s.12,2.11.37,2.98c.25.87.6,1.6,1.06,2.2.47.6,1.03,1.05,1.69,1.36.67.31,1.41.47,2.24.47s1.47-.1,1.98-.29c.51-.19.94-.41,1.28-.64.34-.23.63-.45.86-.64.25-.19.51-.29.79-.29.34,0,.6.13.78.39l1.2,1.54c-.48.59-1.02,1.08-1.61,1.48-.59.4-1.21.73-1.86.99-.65.25-1.34.42-2.04.53-.71.12-1.42.18-2.14.18-1.24,0-2.41-.23-3.49-.68-1.07-.47-2.01-1.14-2.83-2.01-.8-.88-1.43-1.96-1.9-3.22-.46-1.27-.69-2.72-.69-4.35,0-1.47.21-2.83.63-4.07.42-1.26,1.03-2.34,1.83-3.26.81-.91,1.81-1.62,3-2.12,1.19-.52,2.57-.78,4.12-.78,1.45,0,2.73.23,3.83.7,1.11.47,2.1,1.13,2.96,1.99l-1.12,1.52ZM590.5,204.36c.05,1.13.23,2.11.53,2.94.3.82.7,1.5,1.2,2.05.51.55,1.11.95,1.81,1.23.71.26,1.49.39,2.36.39s1.54-.09,2.14-.27c.6-.19,1.13-.4,1.57-.62.44-.23.82-.44,1.14-.63.32-.19.6-.29.86-.29.34,0,.6.13.79.39l1.2,1.54c-.5.59-1.06,1.08-1.69,1.48-.63.4-1.3.73-2,.99-.71.25-1.43.42-2.18.53-.75.12-1.47.18-2.18.18-1.39,0-2.68-.23-3.87-.68-1.18-.47-2.2-1.15-3.08-2.05-.86-.9-1.54-2.01-2.04-3.33-.48-1.33-.73-2.85-.73-4.58,0-1.38.22-2.66.65-3.86.44-1.2,1.07-2.24,1.88-3.12.82-.88,1.82-1.58,2.98-2.08,1.18-.52,2.5-.78,3.98-.78,1.23,0,2.37.2,3.41.6,1.05.39,1.95.97,2.71,1.74.76.77,1.35,1.71,1.77,2.83.43,1.1.65,2.37.65,3.78,0,.65-.07,1.08-.22,1.31-.14.22-.4.33-.78.33h-12.85ZM600.56,201.79c0-.7-.1-1.35-.31-1.95-.2-.61-.49-1.14-.88-1.58-.39-.45-.88-.81-1.47-1.05-.58-.26-1.24-.39-2-.39-1.53,0-2.74.44-3.61,1.31-.88.87-1.43,2.09-1.67,3.66h9.95ZM589.04,189.7h-8.81v24.27h-4.57v-24.27h-8.83v-3.8h22.22v3.8ZM546.45,210.99c1.81,0,3.15-.6,4.02-1.79.89-1.21,1.33-2.93,1.33-5.17s-.44-3.96-1.33-5.17c-.88-1.22-2.22-1.83-4.02-1.83s-3.19.61-4.08,1.83c-.89,1.21-1.33,2.93-1.33,5.17s.44,3.96,1.33,5.17c.89,1.2,2.25,1.79,4.08,1.79ZM546.45,193.78c1.48,0,2.81.24,4,.72,1.2.48,2.22,1.16,3.06,2.05.85.88,1.51,1.96,1.96,3.22.46,1.26.69,2.68.69,4.25s-.23,2.99-.69,4.25c-.46,1.26-1.11,2.34-1.96,3.24-.84.88-1.86,1.57-3.06,2.05-1.19.48-2.53.72-4,.72s-2.84-.24-4.04-.72c-1.19-.48-2.21-1.16-3.06-2.05-.85-.9-1.51-1.97-1.96-3.24-.46-1.26-.69-2.68-.69-4.25s.23-2.99.69-4.25c.46-1.26,1.11-2.33,1.96-3.22.85-.88,1.87-1.57,3.06-2.05,1.2-.48,2.55-.72,4.04-.72ZM527.34,187.77c.42,0,.75-.12.98-.35.24-.25.36-.65.37-1.21h2.57c0,.68-.09,1.29-.27,1.85-.18.55-.44,1.02-.79,1.42-.33.39-.72.7-1.2.92-.46.21-.96.31-1.51.31-.46,0-.89-.09-1.3-.25-.41-.18-.78-.38-1.14-.58-.35-.21-.69-.4-1-.56-.31-.18-.61-.27-.88-.27-.42,0-.75.13-.98.39-.24.25-.35.65-.35,1.21h-2.61c0-.68.09-1.29.27-1.85.2-.56.46-1.03.79-1.42.34-.4.74-.72,1.2-.94.47-.22.98-.33,1.53-.33.47,0,.91.09,1.31.27.41.17.78.36,1.14.56.35.21.68.4.98.58.31.17.61.25.88.25ZM517.56,196.86c2.26-2.09,4.96-3.14,8.09-3.14,1.15,0,2.17.19,3.06.56.9.36,1.65.89,2.26,1.56.62.68,1.08,1.48,1.39,2.42.33.92.49,1.95.49,3.08v12.63h-1.88c-.41,0-.71-.06-.92-.17-.21-.13-.39-.38-.53-.76l-.41-1.62c-.51.45-1.01.86-1.51,1.23-.5.35-1.01.65-1.55.9-.52.25-1.09.43-1.71.55-.6.13-1.27.2-2,.2-.81,0-1.57-.11-2.28-.33-.69-.22-1.3-.55-1.8-.99-.51-.45-.92-1.01-1.22-1.68-.29-.66-.43-1.44-.43-2.34,0-.77.2-1.51.61-2.24.42-.73,1.1-1.38,2.04-1.95.96-.58,2.2-1.07,3.75-1.44,1.56-.38,3.47-.59,5.75-.64v-1.33c0-1.43-.31-2.49-.92-3.2-.62-.7-1.52-1.05-2.71-1.05-.81,0-1.49.1-2.04.31-.55.19-1.03.41-1.43.64-.41.23-.77.46-1.08.66-.32.19-.65.29-1,.29-.29,0-.54-.07-.74-.21-.2-.16-.36-.34-.49-.57l-.76-1.36ZM528.75,205.28c-1.51.05-2.77.17-3.81.37-1.03.18-1.87.42-2.51.72-.64.29-1.11.63-1.39,1.03-.27.4-.41.85-.41,1.33s.07.87.22,1.21c.16.32.37.6.63.82.27.21.59.36.94.47.37.09.77.14,1.2.14,1.1,0,2.04-.2,2.83-.6.8-.42,1.57-1.01,2.32-1.79v-3.68ZM514.66,211.09c-.82.99-1.79,1.73-2.88,2.22-1.1.48-2.26.78-3.47.9l-.29,1.07c1.21.26,2.08.63,2.59,1.11.52.48.78,1.07.78,1.75,0,.43-.11.81-.33,1.15-.22.35-.54.64-.94.88-.39.25-.87.44-1.43.57-.55.13-1.16.19-1.82.19-.54,0-1.05-.04-1.53-.14-.47-.09-.92-.22-1.33-.39l.39-1.31c.08-.27.25-.41.51-.41.08,0,.16.02.25.06.11.04.22.08.35.12.14.05.3.1.47.14.18.04.4.06.65.06.48,0,.84-.1,1.08-.29.25-.18.37-.41.37-.68,0-.44-.25-.75-.76-.94-.5-.17-1.24-.33-2.24-.47l.84-2.47c-1.11-.13-2.15-.45-3.1-.96-.94-.52-1.77-1.22-2.47-2.09-.69-.87-1.24-1.9-1.65-3.1-.39-1.2-.59-2.55-.59-4.05s.21-2.83.63-4.07c.42-1.26,1.03-2.34,1.83-3.26.81-.91,1.81-1.62,3-2.12,1.19-.52,2.56-.78,4.12-.78,1.45,0,2.73.23,3.83.7,1.11.47,2.1,1.13,2.96,1.99l-1.12,1.52c-.13.17-.25.3-.37.39-.12.09-.29.14-.51.14s-.46-.08-.71-.23c-.24-.16-.52-.32-.86-.51-.33-.2-.72-.37-1.2-.53-.47-.16-1.06-.23-1.77-.23-.92,0-1.72.16-2.41.49-.68.33-1.26.79-1.73,1.4-.46.6-.8,1.33-1.04,2.2-.22.86-.33,1.83-.33,2.9s.12,2.11.37,2.98c.25.87.6,1.6,1.06,2.2.47.6,1.03,1.05,1.69,1.36.67.31,1.41.47,2.24.47s1.47-.1,1.98-.29c.51-.19.94-.41,1.28-.64.34-.23.63-.45.86-.64.25-.19.51-.29.78-.29.34,0,.6.13.79.39l1.2,1.54ZM478.96,196.86c2.26-2.09,4.96-3.14,8.09-3.14,1.15,0,2.17.19,3.06.56.9.36,1.65.89,2.26,1.56.62.68,1.08,1.48,1.39,2.42.33.92.49,1.95.49,3.08v12.63h-1.88c-.41,0-.71-.06-.92-.17-.21-.13-.39-.38-.53-.76l-.41-1.62c-.51.45-1.01.86-1.51,1.23-.5.35-1.02.65-1.55.9-.52.25-1.09.43-1.71.55-.6.13-1.27.2-2,.2-.81,0-1.57-.11-2.28-.33-.69-.22-1.3-.55-1.81-.99-.51-.45-.92-1.01-1.22-1.68-.29-.66-.43-1.44-.43-2.34,0-.77.2-1.51.61-2.24.42-.73,1.1-1.38,2.04-1.95.96-.58,2.2-1.07,3.75-1.44,1.56-.38,3.47-.59,5.75-.64v-1.33c0-1.43-.31-2.49-.92-3.2-.62-.7-1.52-1.05-2.71-1.05-.81,0-1.49.1-2.04.31-.55.19-1.03.41-1.43.64-.41.23-.77.46-1.08.66-.32.19-.65.29-1,.29-.29,0-.54-.07-.74-.21-.2-.16-.36-.34-.49-.57l-.77-1.36ZM490.15,205.28c-1.51.05-2.77.17-3.81.37-1.03.18-1.87.42-2.51.72-.64.29-1.11.63-1.39,1.03-.27.4-.41.85-.41,1.33s.07.87.22,1.21c.16.32.37.6.63.82.27.21.59.36.94.47.37.09.76.14,1.2.14,1.1,0,2.04-.2,2.83-.6.8-.42,1.57-1.01,2.32-1.79v-3.68ZM477.03,194.09l-8.05,19.88h-3.81l-8.05-19.88h3.47c.33,0,.6.08.81.25.22.16.37.34.43.57l4.43,11.58c.18.55.35,1.09.49,1.62.14.53.27,1.07.37,1.62.11-.55.23-1.08.37-1.6.16-.53.33-1.08.51-1.64l4.51-11.58c.08-.23.22-.43.43-.59.21-.16.46-.23.76-.23h3.3ZM446.21,210.99c1.8,0,3.15-.6,4.02-1.79.89-1.21,1.33-2.93,1.33-5.17s-.45-3.96-1.33-5.17c-.88-1.22-2.22-1.83-4.02-1.83s-3.19.61-4.08,1.83c-.89,1.21-1.33,2.93-1.33,5.17s.44,3.96,1.33,5.17c.89,1.2,2.25,1.79,4.08,1.79ZM446.21,193.78c1.48,0,2.81.24,4,.72,1.2.48,2.22,1.16,3.06,2.05.85.88,1.5,1.96,1.96,3.22.46,1.26.69,2.68.69,4.25s-.23,2.99-.69,4.25c-.46,1.26-1.11,2.34-1.96,3.24-.84.88-1.86,1.57-3.06,2.05-1.19.48-2.53.72-4,.72s-2.84-.24-4.04-.72c-1.19-.48-2.21-1.16-3.06-2.05-.85-.9-1.5-1.97-1.96-3.24-.46-1.26-.69-2.68-.69-4.25s.23-2.99.69-4.25c.46-1.26,1.11-2.33,1.96-3.22.85-.88,1.87-1.57,3.06-2.05,1.2-.48,2.55-.72,4.04-.72ZM419.5,196.72c.43-.44.88-.84,1.33-1.19.47-.36.97-.68,1.49-.94.52-.26,1.08-.46,1.67-.6.59-.14,1.23-.22,1.92-.22,1.1,0,2.06.18,2.88.55.84.36,1.54.88,2.1,1.54.58.66,1.01,1.46,1.3,2.4.29.92.43,1.94.43,3.06v12.65h-4.2v-12.65c0-1.34-.32-2.38-.94-3.12-.62-.74-1.56-1.11-2.83-1.11-.94,0-1.82.21-2.63.64-.8.43-1.55,1.01-2.26,1.75v14.48h-4.22v-19.88h2.55c.58,0,.94.27,1.1.8l.29,1.83ZM409.95,213.97h-4.61v-28.07h4.61v28.07ZM376.99,204.36c.05,1.13.23,2.11.53,2.94.3.82.7,1.5,1.2,2.05.51.55,1.11.95,1.8,1.23.71.26,1.49.39,2.36.39s1.54-.09,2.14-.27c.6-.19,1.12-.4,1.57-.62.44-.23.82-.44,1.14-.63.31-.19.6-.29.86-.29.34,0,.6.13.79.39l1.2,1.54c-.5.59-1.06,1.08-1.69,1.48-.63.4-1.3.73-2,.99-.71.25-1.43.42-2.18.53-.75.12-1.47.18-2.18.18-1.39,0-2.67-.23-3.87-.68-1.18-.47-2.2-1.15-3.08-2.05-.86-.9-1.54-2.01-2.04-3.33-.48-1.33-.73-2.85-.73-4.58,0-1.38.22-2.66.65-3.86.45-1.2,1.07-2.24,1.89-3.12.83-.88,1.82-1.58,2.98-2.08,1.18-.52,2.51-.78,3.98-.78,1.23,0,2.37.2,3.41.6,1.05.39,1.95.97,2.71,1.74.76.77,1.35,1.71,1.77,2.83.43,1.1.65,2.37.65,3.78,0,.65-.07,1.08-.22,1.31-.14.22-.41.33-.78.33h-12.85ZM387.05,201.79c0-.7-.11-1.35-.31-1.95-.2-.61-.49-1.14-.88-1.58-.39-.45-.88-.81-1.47-1.05-.58-.26-1.24-.39-2-.39-1.53,0-2.73.44-3.61,1.31-.88.87-1.43,2.09-1.67,3.66h9.95ZM368.76,185.12v28.85h-2.55c-.56,0-.92-.27-1.08-.8l-.37-2.16c-.84.97-1.79,1.76-2.87,2.36-1.06.6-2.3.9-3.71.9-1.13,0-2.15-.22-3.06-.66-.92-.45-1.7-1.11-2.36-1.97-.65-.86-1.17-1.92-1.53-3.18-.35-1.27-.53-2.73-.53-4.37,0-1.48.2-2.85.59-4.11.41-1.26.98-2.35,1.73-3.27.74-.94,1.65-1.66,2.71-2.18,1.07-.53,2.27-.8,3.59-.8,1.18,0,2.18.19,3,.56.82.36,1.56.88,2.22,1.54v-10.7h4.22ZM364.54,198.98c-.59-.75-1.24-1.28-1.94-1.58-.71-.3-1.47-.45-2.3-.45-1.65,0-2.94.6-3.87,1.81-.93,1.2-1.39,2.97-1.39,5.32,0,1.22.1,2.27.31,3.14.21.86.51,1.56.9,2.11.39.55.87.94,1.43,1.19.56.25,1.2.37,1.9.37,1.07,0,2-.23,2.77-.68.78-.47,1.51-1.12,2.18-1.97v-9.26ZM321.76,196.86c2.26-2.09,4.96-3.14,8.09-3.14,1.15,0,2.17.19,3.06.56.9.36,1.66.89,2.26,1.56.61.68,1.08,1.48,1.39,2.42.33.92.49,1.95.49,3.08v12.63h-1.88c-.41,0-.71-.06-.92-.17-.21-.13-.39-.38-.53-.76l-.41-1.62c-.51.45-1.01.86-1.51,1.23-.5.35-1.01.65-1.55.9-.53.25-1.09.43-1.71.55-.6.13-1.27.2-2,.2-.81,0-1.57-.11-2.28-.33-.69-.22-1.29-.55-1.8-.99-.51-.45-.92-1.01-1.22-1.68-.29-.66-.43-1.44-.43-2.34,0-.77.2-1.51.61-2.24.42-.73,1.1-1.38,2.04-1.95.95-.58,2.2-1.07,3.75-1.44,1.56-.38,3.47-.59,5.75-.64v-1.33c0-1.43-.31-2.49-.92-3.2-.62-.7-1.52-1.05-2.71-1.05-.81,0-1.49.1-2.04.31-.55.19-1.03.41-1.43.64-.41.23-.76.46-1.08.66-.31.19-.65.29-1,.29-.29,0-.54-.07-.75-.21-.2-.16-.36-.34-.49-.57l-.76-1.36ZM332.95,205.28c-1.5.05-2.77.17-3.81.37-1.03.18-1.87.42-2.51.72-.64.29-1.11.63-1.39,1.03-.28.4-.41.85-.41,1.33s.07.87.22,1.21c.16.32.37.6.63.82.27.21.59.36.94.47.37.09.77.14,1.2.14,1.1,0,2.04-.2,2.83-.6.8-.42,1.57-1.01,2.32-1.79v-3.68ZM317.66,188.09c0,.38-.08.73-.24,1.07-.14.34-.35.64-.61.9-.26.25-.57.45-.92.61-.34.14-.71.21-1.1.21s-.74-.07-1.08-.21c-.33-.16-.62-.36-.86-.61-.25-.26-.45-.56-.61-.9-.14-.34-.22-.69-.22-1.07s.07-.76.22-1.09c.16-.34.36-.63.61-.88.25-.26.54-.46.86-.6.34-.16.7-.23,1.08-.23s.76.08,1.1.23c.35.14.66.34.92.6.26.25.46.54.61.88.16.34.24.7.24,1.09ZM316.95,194.09v19.88h-4.22v-19.88h4.22ZM307.84,197.99c-.13.17-.25.3-.37.39s-.29.14-.51.14-.46-.08-.71-.23c-.24-.16-.52-.32-.86-.51-.33-.2-.73-.37-1.2-.53-.47-.16-1.06-.23-1.77-.23-.92,0-1.72.16-2.41.49-.68.33-1.26.79-1.73,1.4-.46.6-.81,1.33-1.04,2.2-.22.86-.33,1.83-.33,2.9s.12,2.11.37,2.98.6,1.6,1.06,2.2c.47.6,1.03,1.05,1.69,1.36.67.31,1.41.47,2.24.47s1.47-.1,1.98-.29c.51-.19.93-.41,1.28-.64.34-.23.63-.45.86-.64.25-.19.51-.29.79-.29.34,0,.6.13.79.39l1.2,1.54c-.48.59-1.02,1.08-1.61,1.48s-1.21.73-1.87.99c-.65.25-1.33.42-2.04.53-.71.12-1.42.18-2.14.18-1.24,0-2.41-.23-3.49-.68-1.07-.47-2.01-1.14-2.83-2.01-.8-.88-1.43-1.96-1.9-3.22-.46-1.27-.69-2.72-.69-4.35,0-1.47.21-2.83.63-4.07.42-1.26,1.03-2.34,1.83-3.26.81-.91,1.81-1.62,3-2.12,1.19-.52,2.57-.78,4.12-.78,1.45,0,2.73.23,3.83.7,1.11.47,2.1,1.13,2.96,1.99l-1.12,1.52ZM275.64,196.72c.43-.44.88-.84,1.34-1.19.47-.36.97-.68,1.49-.94.52-.26,1.08-.46,1.67-.6.59-.14,1.23-.22,1.92-.22,1.1,0,2.06.18,2.88.55.84.36,1.54.88,2.1,1.54.58.66,1.01,1.46,1.3,2.4.29.92.43,1.94.43,3.06v12.65h-4.2v-12.65c0-1.34-.31-2.38-.94-3.12-.62-.74-1.56-1.11-2.83-1.11-.94,0-1.82.21-2.63.64-.8.43-1.55,1.01-2.26,1.75v14.48h-4.22v-19.88h2.55c.58,0,.94.27,1.1.8l.29,1.83ZM265.73,191.18h-2.83c-.17,0-.34-.03-.51-.08-.16-.05-.32-.17-.49-.35l-2.16-2.26c-.12-.12-.24-.25-.35-.41-.06.08-.13.15-.2.21-.05.06-.11.13-.18.19l-2.2,2.26c-.14.14-.3.25-.47.33-.17.07-.35.1-.53.1h-2.93l4.46-5.28h3.93l4.45,5.28ZM253.9,204.36c.05,1.13.23,2.11.53,2.94.3.82.7,1.5,1.2,2.05.51.55,1.11.95,1.81,1.23.71.26,1.49.39,2.36.39s1.54-.09,2.14-.27c.6-.19,1.12-.4,1.57-.62.44-.23.82-.44,1.14-.63.31-.19.6-.29.86-.29.34,0,.6.13.79.39l1.2,1.54c-.5.59-1.06,1.08-1.69,1.48-.63.4-1.3.73-2,.99-.71.25-1.43.42-2.18.53-.75.12-1.47.18-2.18.18-1.39,0-2.67-.23-3.87-.68-1.18-.47-2.2-1.15-3.08-2.05-.86-.9-1.54-2.01-2.04-3.33-.48-1.33-.73-2.85-.73-4.58,0-1.38.22-2.66.65-3.86.44-1.2,1.07-2.24,1.88-3.12.82-.88,1.82-1.58,2.98-2.08,1.18-.52,2.51-.78,3.98-.78,1.23,0,2.37.2,3.42.6,1.05.39,1.95.97,2.71,1.74.76.77,1.35,1.71,1.77,2.83.43,1.1.65,2.37.65,3.78,0,.65-.07,1.08-.22,1.31-.14.22-.41.33-.79.33h-12.85ZM263.97,201.79c0-.7-.11-1.35-.31-1.95-.2-.61-.49-1.14-.88-1.58-.39-.45-.88-.81-1.47-1.05-.58-.26-1.24-.39-2-.39-1.53,0-2.74.44-3.61,1.31-.88.87-1.43,2.09-1.67,3.66h9.95ZM247.85,194.81v1.56c0,.52-.31.84-.94.95l-2,.33c.34.75.51,1.59.51,2.51,0,.98-.2,1.86-.59,2.65-.38.79-.91,1.47-1.59,2.03-.68.56-1.49.99-2.43,1.29-.94.3-1.96.45-3.06.45-.42,0-.83-.02-1.24-.06-.39-.05-.78-.12-1.16-.19-.38.22-.66.45-.84.7-.18.25-.28.5-.28.76,0,.43.19.75.57.96.38.21.88.36,1.49.45.63.09,1.34.15,2.14.18.8.03,1.61.07,2.43.14.83.06,1.64.17,2.43.33.8.14,1.5.39,2.12.74.63.34,1.13.8,1.51,1.39.38.58.57,1.35.57,2.28,0,.86-.22,1.69-.65,2.51-.43.82-1.06,1.55-1.88,2.18-.81.64-1.81,1.14-2.98,1.52-1.18.39-2.52.58-4.02.58s-2.79-.14-3.91-.43c-1.1-.29-2.02-.68-2.77-1.17-.73-.48-1.28-1.04-1.65-1.68-.35-.64-.53-1.3-.53-1.99,0-.94.29-1.74.88-2.4.6-.66,1.41-1.18,2.43-1.56-.55-.26-1-.62-1.33-1.07-.33-.45-.49-1.05-.49-1.79,0-.58.22-1.19.65-1.83.43-.64,1.08-1.18,1.94-1.62-.99-.55-1.78-1.27-2.36-2.16-.58-.91-.86-1.97-.86-3.18,0-.99.19-1.88.57-2.67.39-.79.93-1.47,1.63-2.03.69-.56,1.51-.99,2.45-1.29.96-.3,1.99-.45,3.12-.45,1.73,0,3.23.36,4.51,1.07h5.59ZM243.61,214.95c0-.44-.13-.79-.39-1.05-.25-.27-.59-.48-1.02-.62-.43-.16-.94-.27-1.51-.33-.57-.08-1.19-.13-1.84-.15-.64-.04-1.3-.07-1.98-.1-.67-.04-1.32-.1-1.94-.19-.63.33-1.14.71-1.55,1.17-.39.46-.59.98-.59,1.58,0,.39.1.76.29,1.09.21.34.52.63.94.88.43.25.97.44,1.63.58.67.14,1.47.21,2.39.21,1.86,0,3.25-.29,4.18-.86.93-.57,1.39-1.31,1.39-2.2ZM237.74,203.85c1.31,0,2.29-.33,2.94-.99.65-.66.98-1.53.98-2.59s-.33-1.95-.98-2.59c-.65-.64-1.63-.95-2.94-.95s-2.28.32-2.94.95c-.65.64-.98,1.5-.98,2.59,0,.52.08,1,.25,1.44.17.44.42.82.74,1.15.33.31.73.56,1.22.74.5.17,1.07.25,1.71.25ZM228.09,213.97h-3.55c-.41,0-.73-.1-.98-.29-.25-.21-.44-.46-.57-.76l-2.36-6.2h-12.17l-2.36,6.2c-.1.26-.29.5-.55.72-.26.22-.59.33-.98.33h-3.55l11.21-28.07h4.65l11.21,28.07ZM219.39,203.45l-3.89-10.25c-.32-.79-.63-1.8-.96-3.02-.15.61-.3,1.18-.47,1.7-.17.51-.33.96-.47,1.35l-3.89,10.23h9.68Z"/>
        </g>
      </g>
      <g>
        <path class="cls-2" d="M105.43,183.69h-63.42c-2.85,0-5.16,2.28-5.16,5.1s2.31,5.1,5.16,5.1h63.42c2.85,0,5.16-2.28,5.16-5.1s-2.31-5.1-5.16-5.1Z"/>
        <path class="cls-2" d="M101.38,199.75c-1.93,3.02-12.06,14.54-17.48,14.54h-20.42c-5.34,0-15.47-11.52-17.4-14.54h55.29Z"/>
        <path class="cls-1" d="M73.7,0C33.02,0,0,30,0,67.05c0,13.53,4.41,26.14,11.99,36.73,9.67,15.7,22.58,29.15,22.58,29.15,5.41,5.57,9.82,15.78,9.82,22.66v6.26h25.29v-21.65l-8.43-8.27v-10.13l-4.41-4.33.08-.08c-3.02,0-5.41-2.4-5.41-5.34s2.4-5.34,5.41-5.34,5.41,2.4,5.41,5.34c0,1.7-.85,3.25-2.09,4.18l4.25,4.18v10.21l5.18,5.1v-27.3l-12.06-11.83h-5.88l-3.94-3.87c-.46.15-.93.23-1.47.23-2.47,0-4.49-2.01-4.49-4.49,0-1.78,1.01-3.33,2.55-4.1v-1.47l-1.62-1.62v-.85h-6.8l-4.95-4.87c-.62.31-1.39.54-2.17.54-2.47,0-4.56-2.01-4.56-4.49s2.09-4.49,4.56-4.49,4.56,2.01,4.56,4.49c0,.77-.23,1.47-.54,2.09l4.18,4.18h5.72v-.85l-3.4-3.33h-.15c-1.16,0-2.17-1.01-2.17-2.17s1.01-2.09,2.17-2.09,2.17.93,2.17,2.09c0,.15,0,.31-.08.46l4.1,3.94v4.33l1.62,1.55v2.17c2.17.31,3.87,2.24,3.87,4.49,0,.77-.23,1.55-.62,2.17l2.78,2.71h5.95l10.67,10.59v-5.8l-10.9-10.75v-13.92l-5.03-4.95c-.62.23-1.24.31-1.93.31-3.25,0-5.88-2.63-5.88-5.88s2.63-5.88,5.88-5.88,5.95,2.63,5.95,5.88c0,.93-.23,1.86-.62,2.63l6.11,6.03v13.92l6.42,6.26v-42.3c-4.1-1.16-7.11-4.87-7.11-9.28,0-5.34,4.33-9.59,9.67-9.59s9.74,4.25,9.74,9.59c0,3.94-2.4,7.35-5.8,8.82v34.95l5.49-5.41v-5.65c-1.31-.39-2.32-1.62-2.32-3.02,0-1.78,1.47-3.25,3.25-3.25s3.25,1.47,3.25,3.25c0,1.39-.93,2.63-2.24,3.02v6.42l-7.42,7.35v35.49l9.05-8.97v-17.55l3.71-3.71c-.7-.93-1.16-2.09-1.16-3.4,0-2.4,1.47-4.49,3.56-5.34v-16.78l6.03-5.95c-1.16-1.31-1.78-3.02-1.78-4.87,0-4.25,3.48-7.73,7.73-7.73s7.81,3.48,7.81,7.73-3.48,7.66-7.81,7.66c-.93,0-1.93-.15-2.78-.46l-5.26,5.18v14.93c1.24.31,2.32,1.01,3.09,2.01l3.33-3.25v-2.71l4.02-3.94v-.39c0-1.16,1.01-2.17,2.17-2.17s2.17,1.01,2.17,2.17-1.01,2.17-2.17,2.17c-.08,0-.15-.08-.23-.08l-3.33,3.33v.85h5.72l4.1-4.1c-.31-.62-.46-1.24-.46-2.01,0-2.78,2.32-5.1,5.18-5.1s5.18,2.32,5.18,5.1-2.32,5.1-5.18,5.1c-1.16,0-2.24-.39-3.09-1.01l-4.64,4.56h-7.58l-4.02,3.94c.08.39.15.77.15,1.16,0,3.25-2.71,5.88-5.95,5.88-.31,0-.62,0-.93-.08l.08.08-3.17,3.09v11.21h4.95l2.4-2.32c-.54-.62-.85-1.31-.85-2.17,0-1.78,1.47-3.17,3.25-3.17s3.25,1.39,3.25,3.17-1.47,3.17-3.25,3.17c-.46,0-.93-.08-1.39-.23l-2.86,2.86h-5.49v5.03l-13.53,13.46v13.53h1.7l3.63-3.63c-.54-.54-.85-1.31-.85-2.17,0-1.78,1.47-3.17,3.25-3.17s3.25,1.39,3.25,3.17-1.47,3.17-3.25,3.17h-.62l-4.56,4.48h-2.55v17.94h26.91v-6.26c0-6.88,4.41-17.09,9.82-22.66,0,0,12.84-13.46,22.58-29.15,7.58-10.59,11.99-23.2,11.99-36.73C147.47,30,114.45,0,73.7,0ZM72.23,34.49c-3.17,0-5.8,2.55-5.8,5.72s2.63,5.8,5.8,5.8,5.88-2.63,5.88-5.8-2.63-5.72-5.88-5.72ZM51.81,60.24c-1.47,0-2.71,1.24-2.71,2.71s1.24,2.63,2.71,2.63c1.55,0,2.71-1.16,2.71-2.63s-1.16-2.71-2.71-2.71ZM93.73,85.91c-1.47,0-2.71,1.16-2.71,2.63s1.24,2.71,2.71,2.71,2.71-1.24,2.71-2.71-1.24-2.63-2.71-2.63ZM103.31,51.12c-2.47,0-4.49,2.01-4.49,4.49s2.01,4.49,4.49,4.49,4.56-2.01,4.56-4.49-2.01-4.49-4.56-4.49ZM56.92,109.27c-1.55,0-2.78,1.24-2.78,2.78s1.24,2.78,2.78,2.78,2.78-1.24,2.78-2.78-1.24-2.78-2.78-2.78ZM46.32,85.91c-1.39,0-2.55,1.08-2.55,2.55,0,1.39,1.16,2.55,2.55,2.55,1.47,0,2.63-1.16,2.63-2.55,0-1.47-1.16-2.55-2.63-2.55ZM118.86,71.61c-1.78,0-3.25,1.39-3.25,3.17s1.47,3.25,3.25,3.25,3.25-1.47,3.25-3.25-1.47-3.17-3.25-3.17ZM107.88,73.77c-.46,0-.85.39-.85.85s.39.85.85.85.85-.39.85-.85-.39-.85-.85-.85ZM82.59,68.59c-.7,0-1.24.62-1.24,1.31s.54,1.24,1.24,1.24c.77,0,1.31-.54,1.31-1.24s-.54-1.31-1.31-1.31ZM83.9,134.32c-1.08,0-1.93.85-1.93,1.93s.85,1.93,1.93,1.93,1.93-.85,1.93-1.93-.85-1.93-1.93-1.93ZM99.45,102.31c-1.08,0-1.93.85-1.93,1.93s.85,1.93,1.93,1.93,1.93-.85,1.93-1.93-.85-1.93-1.93-1.93ZM39.21,70.68c-.46,0-.85.39-.85.85s.39.85.85.85.85-.39.85-.85-.39-.85-.85-.85ZM28.84,69.06c-1.39,0-2.55,1.08-2.55,2.55,0,1.39,1.16,2.55,2.55,2.55,1.47,0,2.63-1.16,2.63-2.55,0-1.47-1.16-2.55-2.63-2.55Z"/>
        <path class="cls-2" d="M101.01,167.65h-54.57c-2.85,0-5.16,2.28-5.16,5.1s2.31,5.1,5.16,5.1h54.57c2.85,0,5.16-2.28,5.16-5.1s-2.31-5.1-5.16-5.1Z"/>
      </g>
    </g>
  </g>
</svg>